<svg width="438" height="438" viewBox="0 0 438 438" fill="none" xmlns="http://www.w3.org/2000/svg">
<path d="M162.943 94.5796V46H185.074V94.5796H162.943ZM214.761 94.5796V46H236.892V94.5796H214.761ZM162.943 391.455V342.875H185.074V391.455H162.943ZM214.761 391.455V342.875H236.892V391.455H214.761ZM123 356.909V80.5455H219.619C238.871 80.5455 254.75 83.8741 267.254 90.5313C279.759 97.0985 289.07 105.96 295.188 117.115C301.305 128.18 304.364 140.46 304.364 153.955C304.364 165.83 302.25 175.635 298.021 183.372C293.883 191.109 288.395 197.226 281.558 201.724C274.811 206.223 267.479 209.551 259.562 211.71V214.409C268.019 214.949 276.52 217.918 285.067 223.315C293.613 228.713 300.765 236.45 306.523 246.526C312.28 256.601 315.159 268.926 315.159 283.5C315.159 297.354 312.01 309.814 305.713 320.879C299.416 331.945 289.475 340.716 275.891 347.193C262.306 353.67 244.629 356.909 222.858 356.909H123ZM156.466 327.222H222.858C244.719 327.222 260.237 322.993 269.413 314.537C278.679 305.991 283.312 295.645 283.312 283.5C283.312 274.144 280.929 265.508 276.161 257.591C271.393 249.584 264.6 243.197 255.784 238.429C246.968 233.571 236.532 231.142 224.477 231.142H156.466V327.222ZM156.466 201.994H218.54C228.616 201.994 237.702 200.015 245.798 196.057C253.985 192.098 260.462 186.521 265.23 179.324C270.088 172.127 272.517 163.67 272.517 153.955C272.517 141.81 268.289 131.509 259.832 123.053C251.376 114.506 237.972 110.233 219.619 110.233H156.466V156.114V201.994Z" fill="white"/>
</svg>
