<svg width="85" height="26" viewBox="0 0 85 26" fill="none" xmlns="http://www.w3.org/2000/svg">
<path d="M42.5636 19.3375H40.2431L37.5322 15.3688L35.0166 19.3375H32.7178L36.3828 13.6989L32.8262 8.49406H35.1467L37.7491 12.3109L40.1564 8.49406H42.4552L38.8768 13.9591L42.5636 19.3375ZM50.2624 8.27719C51.3468 8.27719 52.1636 8.43262 52.713 8.74346C53.2624 9.05431 53.6419 9.6037 53.8516 10.3917C54.0612 11.1796 54.166 12.3543 54.166 13.9158C54.166 15.4917 54.0576 16.6808 53.8407 17.4832C53.6239 18.2857 53.2407 18.8495 52.6913 19.1748C52.1419 19.5001 51.3323 19.6628 50.2624 19.6628C49.5395 19.6628 48.9395 19.623 48.4624 19.5435C47.9853 19.464 47.5805 19.3302 47.2479 19.1423V22.9158L45.0793 23.176V8.49406H46.0769L46.5757 9.40491C46.8793 8.97117 47.313 8.67479 47.8769 8.51575C48.4407 8.35671 49.2359 8.27719 50.2624 8.27719ZM51.8889 17.3423V10.0555H48.2455C47.8696 10.0555 47.6094 10.088 47.4648 10.1531C47.3202 10.2182 47.2479 10.3302 47.2479 10.4893V17.8845H50.8913C51.2817 17.8845 51.5455 17.8483 51.6829 17.776C51.8202 17.7037 51.8889 17.5592 51.8889 17.3423ZM57.4191 8.64587L59.5877 8.32057V19.3375H57.4191V8.64587ZM58.5251 6.60731C57.9901 6.60731 57.6323 6.51695 57.4516 6.33622C57.2709 6.1555 57.1805 5.81213 57.1805 5.3061C57.1805 4.78562 57.2745 4.4314 57.4624 4.24345C57.6504 4.05549 58.0046 3.96152 58.5251 3.96152C59.0311 3.96152 59.3745 4.05549 59.5552 4.24345C59.7359 4.4314 59.8263 4.78562 59.8263 5.3061C59.8263 5.81213 59.7396 6.1555 59.5661 6.33622C59.3926 6.51695 59.0456 6.60731 58.5251 6.60731ZM68.6745 8.27719C69.7589 8.27719 70.5757 8.43262 71.1251 8.74346C71.6745 9.05431 72.054 9.6037 72.2637 10.3917C72.4733 11.1796 72.5781 12.3543 72.5781 13.9158C72.5781 15.4917 72.4697 16.6808 72.2528 17.4832C72.036 18.2857 71.6528 18.8495 71.1034 19.1748C70.554 19.5001 69.7444 19.6628 68.6745 19.6628C67.9516 19.6628 67.3516 19.623 66.8745 19.5435C66.3974 19.464 65.9926 19.3302 65.66 19.1423V22.9158L63.4914 23.176V8.49406H64.489L64.9878 9.40491C65.2914 8.97117 65.7251 8.67479 66.289 8.51575C66.8528 8.35671 67.648 8.27719 68.6745 8.27719ZM70.301 17.3423V10.0555H66.6576C66.2817 10.0555 66.0215 10.088 65.8769 10.1531C65.7323 10.2182 65.66 10.3302 65.66 10.4893V17.8845H69.3034C69.6938 17.8845 69.9577 17.8483 70.095 17.776C70.2324 17.7037 70.301 17.5592 70.301 17.3423ZM79.7782 17.8411C80.3709 17.8411 80.9493 17.8013 81.5131 17.7218C82.077 17.6423 82.7493 17.5086 83.53 17.3206L83.8119 18.9037C83.277 19.1061 82.6155 19.2652 81.8276 19.3808C81.0396 19.4965 80.2264 19.5543 79.3878 19.5543C78.2601 19.5543 77.3998 19.3917 76.8071 19.0664C76.2143 18.7411 75.795 18.1808 75.5492 17.3857C75.3035 16.5905 75.1806 15.4338 75.1806 13.9158C75.1806 12.4555 75.3215 11.3242 75.6035 10.5218C75.8854 9.71937 76.3517 9.14467 77.0023 8.79768C77.6529 8.45069 78.5709 8.27719 79.7565 8.27719C80.9276 8.27719 81.8203 8.37117 82.4348 8.55912C83.0493 8.74708 83.4794 9.06876 83.7252 9.52419C83.971 9.97961 84.0938 10.6483 84.0938 11.5302C84.0938 12.5856 83.942 13.3447 83.6384 13.8073C83.3348 14.27 82.7384 14.5808 81.8493 14.7399C80.9601 14.8989 79.4962 14.9784 77.4577 14.9784V17.6025C78.036 17.7616 78.8095 17.8411 79.7782 17.8411ZM79.2577 10.0555C78.5637 10.0555 78.0902 10.1423 77.8372 10.3158C77.5842 10.4892 77.4577 10.8218 77.4577 11.3133V13.5688H80.3203C81.0288 13.5688 81.5095 13.482 81.7625 13.3085C82.0155 13.135 82.142 12.8025 82.142 12.3109V10.0555H79.2577Z" fill="white"/>
<path d="M4.61931 7.66483C5.07555 6.93484 5.07556 6.11359 4.71056 5.3836C4.52806 4.92735 4.16306 4.56237 3.70681 4.37987C3.43306 4.19738 3.15932 4.10611 2.79432 4.10611C2.70307 4.10611 2.61182 4.10611 2.42933 4.10611C1.60808 4.10611 0.786819 4.56237 0.330572 5.29237C-0.216925 6.20486 -0.0344145 7.20861 0.513082 8.02985C0.695581 8.3036 0.969318 8.48608 1.24307 8.66858C1.60806 8.85108 2.06433 9.03357 2.42933 9.03357C2.52058 9.03357 2.52056 9.03357 2.61181 9.03357C3.5243 8.75983 4.25431 8.39483 4.61931 7.66483Z" fill="white"/>
<path d="M5.63457 19.0479C5.17832 18.5917 4.44833 18.5917 3.99209 19.0479C3.53584 19.5042 3.53584 20.2342 3.99209 20.6904C5.36083 21.9679 6.91205 22.9716 8.64579 23.6104C8.64579 23.4279 8.64579 23.2454 8.64579 23.0629C8.64579 22.4241 8.82829 21.8767 9.10203 21.3292C7.82454 20.7817 6.63831 20.0517 5.63457 19.0479Z" fill="white"/>
<path d="M18.9796 19.0603C17.9759 20.064 16.7896 20.794 15.5121 21.2502C15.7859 21.7977 15.9684 22.3453 15.9684 22.984C15.9684 23.1665 15.9684 23.349 15.8771 23.5315C17.7021 22.984 19.2534 21.9803 20.6221 20.6115C21.0783 20.1553 21.0783 19.4253 20.6221 18.969C20.1658 18.604 19.4359 18.604 18.9796 19.0603Z" fill="white"/>
<path d="M2.90058 10.4022C2.26183 10.4022 1.71434 10.2197 1.16684 9.85472C0.984344 9.76347 0.893094 9.67223 0.710595 9.58098C0.345598 11.406 0.345581 13.3222 0.893077 15.1472C0.984327 15.6947 1.53183 15.9684 1.98808 15.9684C2.07933 15.9684 2.17057 15.9684 2.26182 15.9684C2.90056 15.7859 3.26558 15.1472 3.08309 14.5997C2.71809 13.1397 2.71808 11.771 2.90058 10.4022Z" fill="white"/>
<path d="M10.3111 0.868218C10.1286 0.229472 9.48987 -0.13552 8.94238 0.046979C7.11739 0.503226 5.47488 1.41571 4.10614 2.69321C4.28864 2.78446 4.47114 2.87569 4.56239 2.96694C5.10988 3.24069 5.56615 3.69693 5.8399 4.24443C6.93489 3.33194 8.12114 2.69321 9.48988 2.32821C10.1286 2.05447 10.4936 1.50696 10.3111 0.868218Z" fill="white"/>
<path d="M19.9391 2.96694C20.1216 2.87569 20.3041 2.78446 20.3953 2.69321C19.0266 1.41571 17.3841 0.594476 15.5591 0.046979C14.9203 -0.13552 14.3728 0.229472 14.1904 0.868218C14.0079 1.50696 14.3728 2.05446 15.0116 2.23696C16.3803 2.60196 17.5666 3.24071 18.6616 4.1532C18.9353 3.78821 19.3916 3.33194 19.9391 2.96694Z" fill="white"/>
<path d="M23.8626 9.58098C23.6801 9.67223 23.5889 9.76347 23.4064 9.94597C22.8589 10.2197 22.3114 10.4022 21.6726 10.4935C21.9464 11.8622 21.8552 13.3222 21.4902 14.5997C21.3077 15.2384 21.6726 15.7859 22.3114 15.9684C22.4026 15.9684 22.4939 15.9684 22.5851 15.9684C23.0414 15.9684 23.5889 15.6034 23.6801 15.1472C24.2276 13.3222 24.3189 11.406 23.8626 9.58098Z" fill="white"/>
<path d="M22.7101 8.57733C22.9839 8.39483 23.2576 8.21235 23.4401 7.9386C23.9876 7.2086 24.0789 6.11361 23.6226 5.29237C23.1664 4.47112 22.3451 4.10611 21.5239 4.10611C21.4326 4.10611 21.3414 4.10611 21.2501 4.10611C20.9764 4.10611 20.6114 4.28863 20.3377 4.37987C19.8814 4.65362 19.6077 5.0186 19.4252 5.3836C19.0602 6.11359 19.0602 6.93484 19.5164 7.66483C19.9727 8.39483 20.7026 8.85109 21.5239 8.85109H21.6151C21.8889 8.85109 22.3451 8.75983 22.7101 8.57733Z" fill="white"/>
<path d="M12.4097 20.5307C11.5885 20.5307 10.7672 20.9869 10.4022 21.6257C10.1285 21.9907 10.0372 22.4469 10.0372 22.9944C10.0372 23.3594 10.1285 23.6331 10.2197 23.9069C10.5847 24.8194 11.4972 25.3669 12.501 25.3669C13.5047 25.3669 14.326 24.7281 14.7822 23.9069C14.8735 23.6331 14.9647 23.2682 14.9647 22.9944C14.9647 22.5382 14.7822 22.0819 14.5997 21.6257C13.961 20.8957 13.231 20.5307 12.4097 20.5307Z" fill="white"/>
</svg>
