<svg width="488" height="488" viewBox="0 0 488 488" fill="none" xmlns="http://www.w3.org/2000/svg">
<path d="M187.943 119.58V71H210.074V119.58H187.943ZM239.761 119.58V71H261.892V119.58H239.761ZM187.943 416.455V367.875H210.074V416.455H187.943ZM239.761 416.455V367.875H261.892V416.455H239.761ZM148 381.909V105.545H244.619C263.871 105.545 279.75 108.874 292.254 115.531C304.759 122.098 314.07 130.96 320.188 142.115C326.305 153.18 329.364 165.46 329.364 178.955C329.364 190.83 327.25 200.635 323.021 208.372C318.883 216.109 313.395 222.226 306.558 226.724C299.811 231.223 292.479 234.551 284.562 236.71V239.409C293.019 239.949 301.52 242.918 310.067 248.315C318.613 253.713 325.765 261.45 331.523 271.526C337.28 281.601 340.159 293.926 340.159 308.5C340.159 322.354 337.01 334.814 330.713 345.879C324.416 356.945 314.475 365.716 300.891 372.193C287.306 378.67 269.629 381.909 247.858 381.909H148ZM181.466 352.222H247.858C269.719 352.222 285.237 347.993 294.413 339.537C303.679 330.991 308.312 320.645 308.312 308.5C308.312 299.144 305.929 290.508 301.161 282.591C296.393 274.584 289.6 268.197 280.784 263.429C271.968 258.571 261.532 256.142 249.477 256.142H181.466V352.222ZM181.466 226.994H243.54C253.616 226.994 262.702 225.015 270.798 221.057C278.985 217.098 285.462 211.521 290.23 204.324C295.088 197.127 297.517 188.67 297.517 178.955C297.517 166.81 293.289 156.509 284.832 148.053C276.376 139.506 262.972 135.233 244.619 135.233H181.466V181.114V226.994Z" fill="white"/>
</svg>
