<svg xmlns="http://www.w3.org/2000/svg" version="1.1" xmlns:xlink="http://www.w3.org/1999/xlink" xmlns:svgjs="http://svgjs.com/svgjs" width="512" height="512" x="0" y="0" viewBox="0 0 434.912 434.912" style="enable-background:new 0 0 512 512" xml:space="preserve" class=""><g><path xmlns="http://www.w3.org/2000/svg" d="m328.056 210.441c18.268-17.845 29.694-42.657 29.694-70.147 0-49.341-36.711-89.907-84.176-96.788v-43.506h-56.118v42.088h-56.118v-42.088h-56.118v42.088h-28.058v56.118h28.059v224.471h-28.059v56.118h28.059v56.118h56.118v-56.118h56.118v56.118h56.118v-57.536c47.466-6.881 84.176-47.447 84.176-96.788-.001-27.491-11.427-52.303-29.695-70.148zm-26.424-70.147c0 23.209-18.879 42.088-42.088 42.088h-98.206v-84.176h98.206c23.209 0 42.088 18.879 42.088 42.088zm-42.088 182.382h-98.206v-84.176h98.206c23.209 0 42.088 18.879 42.088 42.088s-18.879 42.088-42.088 42.088z" fill="#000000" data-original="#000000" class=""></path></g></svg>