<svg xmlns="http://www.w3.org/2000/svg" version="1.1" xmlns:xlink="http://www.w3.org/1999/xlink" xmlns:svgjs="http://svgjs.com/svgjs" width="512" height="512" x="0" y="0" viewBox="0 0 360 360" style="enable-background:new 0 0 512 512" xml:space="preserve" class=""><g><path xmlns="http://www.w3.org/2000/svg" d="m271.765 182.69c-.399-.025-90.592 53.425-91.774 53.882-.266-.154-91.252-54.003-91.685-53.949.221.323 91.624 129.377 91.685 129.377.062 0 91.774-129.31 91.774-129.31z" fill="#000000" data-original="#000000" class=""></path><path xmlns="http://www.w3.org/2000/svg" d="m180.035 12-91.432 152.918 91.432 54.158 91.432-54.158z" fill="#000000" data-original="#000000" class=""></path><path xmlns="http://www.w3.org/2000/svg" d="m274 348h-188c-3.314 0-6-2.686-6-6 0-3.314 2.686-6 6-6h188c3.314 0 6 2.686 6 6 0 3.314-2.686 6-6 6z" fill="#000000" data-original="#000000" class=""></path></g></svg>