<svg xmlns="http://www.w3.org/2000/svg" width="438" height="439" viewBox="0 0 438 439" fill="none">
  <path d="M39.9432 141.58V93H62.0739V141.58H39.9432ZM91.7614 141.58V93H113.892V141.58H91.7614ZM39.9432 438.455V389.875H62.0739V438.455H39.9432ZM91.7614 438.455V389.875H113.892V438.455H91.7614ZM0 403.909V127.545H96.6193C115.871 127.545 131.75 130.874 144.254 137.531C156.759 144.098 166.07 152.96 172.188 164.115C178.305 175.18 181.364 187.46 181.364 200.955C181.364 212.83 179.25 222.635 175.021 230.372C170.883 238.109 165.395 244.226 158.558 248.724C151.811 253.223 144.479 256.551 136.562 258.71V261.409C145.019 261.949 153.52 264.918 162.067 270.315C170.613 275.713 177.765 283.45 183.523 293.526C189.28 303.601 192.159 315.926 192.159 330.5C192.159 344.354 189.01 356.814 182.713 367.879C176.416 378.945 166.475 387.716 152.891 394.193C139.306 400.67 121.629 403.909 99.858 403.909H0ZM33.4659 374.222H99.858C121.719 374.222 137.237 369.993 146.413 361.537C155.679 352.991 160.312 342.645 160.312 330.5C160.312 321.144 157.929 312.508 153.161 304.591C148.393 296.584 141.6 290.197 132.784 285.429C123.968 280.571 113.532 278.142 101.477 278.142H33.4659V374.222ZM33.4659 248.994H95.5398C105.616 248.994 114.702 247.015 122.798 243.057C130.985 239.098 137.462 233.521 142.23 226.324C147.088 219.127 149.517 210.67 149.517 200.955C149.517 188.81 145.289 178.509 136.832 170.053C128.376 161.506 114.972 157.233 96.6193 157.233H33.4659V203.114V248.994Z" fill="white"/>
  </svg>