<svg width="315" height="184" viewBox="0 0 315 184" fill="none" xmlns="http://www.w3.org/2000/svg">
<rect width="315" height="184" rx="30" fill="url(#paint0_linear_12_0)"/>
<mask id="mask0_12_0" style="mask-type:alpha" maskUnits="userSpaceOnUse" x="0" y="0" width="315" height="184">
<rect width="315" height="184" rx="30" fill="#ED713C"/>
</mask>
<g mask="url(#mask0_12_0)">
<ellipse opacity="0.1" cx="24.5" cy="213" rx="160.5" ry="113" fill="black"/>
<ellipse opacity="0.08" cx="290.5" cy="-29" rx="160.5" ry="113" fill="black"/>
</g>
<path d="M252.942 153.189V154.816C252.942 155.596 252.865 156.261 252.71 156.812C252.56 157.359 252.341 157.804 252.054 158.146C251.767 158.487 251.423 158.738 251.021 158.897C250.625 159.057 250.181 159.137 249.688 159.137C249.297 159.137 248.932 159.087 248.595 158.986C248.262 158.886 247.961 158.729 247.692 158.515C247.424 158.3 247.193 158.025 247.002 157.688C246.815 157.346 246.669 156.938 246.564 156.464C246.464 155.99 246.414 155.441 246.414 154.816V153.189C246.414 152.406 246.492 151.745 246.646 151.207C246.801 150.665 247.022 150.225 247.31 149.888C247.597 149.546 247.938 149.298 248.335 149.143C248.736 148.988 249.183 148.91 249.675 148.91C250.071 148.91 250.436 148.96 250.769 149.061C251.106 149.156 251.407 149.309 251.671 149.519C251.94 149.728 252.168 150.002 252.354 150.339C252.546 150.672 252.692 151.075 252.792 151.549C252.892 152.018 252.942 152.565 252.942 153.189ZM251.295 155.049V152.943C251.295 152.547 251.272 152.198 251.227 151.897C251.181 151.592 251.113 151.335 251.021 151.125C250.935 150.911 250.826 150.738 250.693 150.605C250.561 150.469 250.411 150.371 250.242 150.312C250.074 150.248 249.884 150.216 249.675 150.216C249.42 150.216 249.192 150.266 248.991 150.366C248.791 150.462 248.622 150.617 248.485 150.831C248.349 151.045 248.244 151.328 248.171 151.679C248.103 152.025 248.068 152.447 248.068 152.943V155.049C248.068 155.45 248.091 155.803 248.137 156.108C248.182 156.414 248.251 156.676 248.342 156.895C248.433 157.109 248.542 157.286 248.67 157.428C248.802 157.564 248.952 157.665 249.121 157.729C249.294 157.792 249.483 157.824 249.688 157.824C249.948 157.824 250.178 157.774 250.379 157.674C250.579 157.574 250.748 157.414 250.885 157.195C251.021 156.972 251.124 156.683 251.192 156.327C251.261 155.972 251.295 155.546 251.295 155.049ZM256.238 157.701H256.375C257.004 157.701 257.528 157.619 257.947 157.455C258.371 157.286 258.708 157.054 258.959 156.758C259.21 156.462 259.39 156.113 259.499 155.712C259.608 155.311 259.663 154.876 259.663 154.406V152.69C259.663 152.285 259.62 151.929 259.533 151.624C259.451 151.314 259.333 151.057 259.178 150.852C259.027 150.642 258.852 150.485 258.651 150.38C258.455 150.275 258.243 150.223 258.016 150.223C257.765 150.223 257.539 150.28 257.339 150.394C257.143 150.503 256.977 150.656 256.84 150.852C256.708 151.043 256.605 151.269 256.532 151.528C256.464 151.784 256.43 152.057 256.43 152.349C256.43 152.622 256.462 152.886 256.525 153.142C256.594 153.392 256.694 153.616 256.826 153.812C256.958 154.007 257.125 154.162 257.325 154.276C257.526 154.39 257.76 154.447 258.029 154.447C258.285 154.447 258.519 154.399 258.733 154.304C258.948 154.203 259.134 154.069 259.294 153.9C259.453 153.732 259.579 153.543 259.67 153.333C259.761 153.123 259.811 152.909 259.82 152.69L260.449 152.882C260.449 153.228 260.376 153.57 260.23 153.907C260.089 154.24 259.891 154.545 259.636 154.823C259.385 155.097 259.091 155.315 258.754 155.479C258.421 155.644 258.059 155.726 257.667 155.726C257.193 155.726 256.774 155.637 256.409 155.459C256.049 155.277 255.748 155.031 255.507 154.721C255.27 154.411 255.092 154.055 254.974 153.654C254.855 153.253 254.796 152.832 254.796 152.39C254.796 151.911 254.869 151.462 255.015 151.043C255.16 150.624 255.372 150.255 255.65 149.936C255.928 149.612 256.266 149.361 256.662 149.184C257.063 149.001 257.517 148.91 258.022 148.91C258.56 148.91 259.032 149.015 259.438 149.225C259.843 149.434 260.185 149.724 260.463 150.093C260.741 150.462 260.951 150.89 261.092 151.378C261.233 151.866 261.304 152.39 261.304 152.95V153.531C261.304 154.119 261.251 154.687 261.146 155.233C261.042 155.776 260.871 156.279 260.634 156.744C260.401 157.204 260.094 157.61 259.711 157.961C259.333 158.307 258.868 158.578 258.316 158.774C257.77 158.966 257.127 159.062 256.389 159.062H256.238V157.701ZM267.792 149.047L263.916 159.854H262.624L266.507 149.047H267.792ZM276.01 157.688V159H269.338V157.872L272.578 154.338C272.934 153.937 273.214 153.59 273.419 153.299C273.624 153.007 273.768 152.745 273.85 152.513C273.936 152.276 273.979 152.046 273.979 151.822C273.979 151.508 273.92 151.232 273.802 150.995C273.688 150.754 273.519 150.564 273.296 150.428C273.073 150.286 272.801 150.216 272.482 150.216C272.113 150.216 271.803 150.296 271.553 150.455C271.302 150.615 271.113 150.836 270.985 151.118C270.858 151.396 270.794 151.715 270.794 152.075H269.146C269.146 151.496 269.279 150.968 269.543 150.489C269.807 150.006 270.19 149.623 270.691 149.341C271.193 149.054 271.797 148.91 272.503 148.91C273.168 148.91 273.733 149.022 274.198 149.245C274.663 149.468 275.016 149.785 275.258 150.195C275.504 150.605 275.627 151.091 275.627 151.651C275.627 151.961 275.577 152.269 275.477 152.574C275.376 152.88 275.233 153.185 275.046 153.49C274.864 153.791 274.647 154.094 274.396 154.399C274.146 154.7 273.87 155.006 273.569 155.315L271.416 157.688H276.01ZM279.524 154.372L278.212 154.051L278.752 149.047H284.118V150.441H280.119L279.846 152.882C280.001 152.791 280.215 152.702 280.488 152.615C280.762 152.524 281.074 152.479 281.425 152.479C281.894 152.479 282.313 152.556 282.683 152.711C283.056 152.861 283.373 153.082 283.633 153.374C283.893 153.661 284.091 154.012 284.228 154.427C284.364 154.837 284.433 155.299 284.433 155.814C284.433 156.275 284.364 156.705 284.228 157.106C284.095 157.507 283.895 157.861 283.626 158.166C283.357 158.471 283.018 158.711 282.607 158.884C282.202 159.052 281.721 159.137 281.165 159.137C280.75 159.137 280.352 159.077 279.969 158.959C279.59 158.836 279.251 158.656 278.95 158.419C278.649 158.177 278.408 157.881 278.226 157.53C278.043 157.175 277.938 156.767 277.911 156.307H279.524C279.565 156.63 279.654 156.906 279.791 157.134C279.932 157.357 280.119 157.528 280.352 157.646C280.584 157.765 280.853 157.824 281.158 157.824C281.436 157.824 281.675 157.776 281.876 157.681C282.076 157.58 282.243 157.439 282.375 157.257C282.512 157.07 282.612 156.851 282.676 156.601C282.744 156.35 282.778 156.072 282.778 155.767C282.778 155.475 282.74 155.208 282.662 154.967C282.589 154.725 282.478 154.516 282.327 154.338C282.181 154.16 281.997 154.023 281.773 153.928C281.55 153.827 281.293 153.777 281.001 153.777C280.609 153.777 280.308 153.834 280.099 153.948C279.894 154.062 279.702 154.203 279.524 154.372Z" fill="white"/>
<path opacity="0.9" d="M32.4814 154.372L31.1689 154.051L31.709 149.047H37.0752V150.441H33.0762L32.8027 152.882C32.9577 152.791 33.1719 152.702 33.4453 152.615C33.7188 152.524 34.0309 152.479 34.3818 152.479C34.8512 152.479 35.2705 152.556 35.6396 152.711C36.0133 152.861 36.3301 153.082 36.5898 153.374C36.8496 153.661 37.0479 154.012 37.1846 154.427C37.3213 154.837 37.3896 155.299 37.3896 155.814C37.3896 156.275 37.3213 156.705 37.1846 157.106C37.0524 157.507 36.8519 157.861 36.583 158.166C36.3141 158.471 35.9746 158.711 35.5645 158.884C35.1589 159.052 34.6781 159.137 34.1221 159.137C33.7074 159.137 33.3086 159.077 32.9258 158.959C32.5475 158.836 32.208 158.656 31.9072 158.419C31.6064 158.177 31.3649 157.881 31.1826 157.53C31.0003 157.175 30.8955 156.767 30.8682 156.307H32.4814C32.5225 156.63 32.6113 156.906 32.748 157.134C32.8893 157.357 33.0762 157.528 33.3086 157.646C33.541 157.765 33.8099 157.824 34.1152 157.824C34.3932 157.824 34.6325 157.776 34.833 157.681C35.0335 157.58 35.1999 157.439 35.332 157.257C35.4688 157.07 35.569 156.851 35.6328 156.601C35.7012 156.35 35.7354 156.072 35.7354 155.767C35.7354 155.475 35.6966 155.208 35.6191 154.967C35.5462 154.725 35.4346 154.516 35.2842 154.338C35.1383 154.16 34.9538 154.023 34.7305 153.928C34.5072 153.827 34.2497 153.777 33.958 153.777C33.5661 153.777 33.2653 153.834 33.0557 153.948C32.8506 154.062 32.6592 154.203 32.4814 154.372ZM45.8809 157.688V159H39.209V157.872L42.4492 154.338C42.8047 153.937 43.085 153.59 43.29 153.299C43.4951 153.007 43.6387 152.745 43.7207 152.513C43.8073 152.276 43.8506 152.046 43.8506 151.822C43.8506 151.508 43.7913 151.232 43.6729 150.995C43.5589 150.754 43.3903 150.564 43.167 150.428C42.9437 150.286 42.6725 150.216 42.3535 150.216C41.9844 150.216 41.6745 150.296 41.4238 150.455C41.1732 150.615 40.984 150.836 40.8564 151.118C40.7288 151.396 40.665 151.715 40.665 152.075H39.0176C39.0176 151.496 39.1497 150.968 39.4141 150.489C39.6784 150.006 40.0612 149.623 40.5625 149.341C41.0638 149.054 41.6676 148.91 42.374 148.91C43.0394 148.91 43.6045 149.022 44.0693 149.245C44.5342 149.468 44.8874 149.785 45.1289 150.195C45.375 150.605 45.498 151.091 45.498 151.651C45.498 151.961 45.4479 152.269 45.3477 152.574C45.2474 152.88 45.1038 153.185 44.917 153.49C44.7347 153.791 44.5182 154.094 44.2676 154.399C44.0169 154.7 43.7412 155.006 43.4404 155.315L41.2871 157.688H45.8809ZM54.1738 156.286C54.1738 156.906 54.0303 157.428 53.7432 157.852C53.4561 158.275 53.0641 158.597 52.5674 158.815C52.0752 159.03 51.5192 159.137 50.8994 159.137C50.2796 159.137 49.7214 159.03 49.2246 158.815C48.7279 158.597 48.3359 158.275 48.0488 157.852C47.7617 157.428 47.6182 156.906 47.6182 156.286C47.6182 155.876 47.6979 155.505 47.8574 155.172C48.0169 154.835 48.2425 154.545 48.5342 154.304C48.8304 154.058 49.1768 153.868 49.5732 153.736C49.9743 153.604 50.4118 153.538 50.8857 153.538C51.5146 153.538 52.0775 153.654 52.5742 153.887C53.071 154.119 53.4606 154.44 53.7432 154.851C54.0303 155.261 54.1738 155.739 54.1738 156.286ZM52.5195 156.204C52.5195 155.871 52.4512 155.58 52.3145 155.329C52.1777 155.078 51.9863 154.885 51.7402 154.748C51.4941 154.611 51.2093 154.543 50.8857 154.543C50.5576 154.543 50.2728 154.611 50.0312 154.748C49.7897 154.885 49.6006 155.078 49.4639 155.329C49.3317 155.58 49.2656 155.871 49.2656 156.204C49.2656 156.541 49.3317 156.833 49.4639 157.079C49.596 157.321 49.7852 157.505 50.0312 157.633C50.2773 157.76 50.5667 157.824 50.8994 157.824C51.2321 157.824 51.5192 157.76 51.7607 157.633C52.0023 157.505 52.1891 157.321 52.3213 157.079C52.4535 156.833 52.5195 156.541 52.5195 156.204ZM53.9482 151.665C53.9482 152.162 53.8161 152.604 53.5518 152.991C53.292 153.379 52.932 153.684 52.4717 153.907C52.0114 154.126 51.4873 154.235 50.8994 154.235C50.307 154.235 49.7783 154.126 49.3135 153.907C48.8532 153.684 48.4909 153.379 48.2266 152.991C47.9668 152.604 47.8369 152.162 47.8369 151.665C47.8369 151.073 47.9668 150.574 48.2266 150.168C48.4909 149.758 48.8532 149.446 49.3135 149.231C49.7738 149.017 50.3001 148.91 50.8926 148.91C51.485 148.91 52.0114 149.017 52.4717 149.231C52.932 149.446 53.292 149.758 53.5518 150.168C53.8161 150.574 53.9482 151.073 53.9482 151.665ZM52.3008 151.72C52.3008 151.424 52.2415 151.164 52.123 150.94C52.0091 150.713 51.8473 150.535 51.6377 150.407C51.4281 150.28 51.1797 150.216 50.8926 150.216C50.6055 150.216 50.3571 150.277 50.1475 150.4C49.9378 150.523 49.776 150.697 49.6621 150.92C49.5482 151.143 49.4912 151.41 49.4912 151.72C49.4912 152.025 49.5482 152.292 49.6621 152.52C49.776 152.743 49.9378 152.918 50.1475 153.046C50.3617 153.174 50.6123 153.237 50.8994 153.237C51.1865 153.237 51.4349 153.174 51.6445 153.046C51.8542 152.918 52.016 152.743 52.1299 152.52C52.2438 152.292 52.3008 152.025 52.3008 151.72ZM62.7949 157.688V159H56.123V157.872L59.3633 154.338C59.7188 153.937 59.999 153.59 60.2041 153.299C60.4092 153.007 60.5527 152.745 60.6348 152.513C60.7214 152.276 60.7646 152.046 60.7646 151.822C60.7646 151.508 60.7054 151.232 60.5869 150.995C60.473 150.754 60.3044 150.564 60.0811 150.428C59.8577 150.286 59.5866 150.216 59.2676 150.216C58.8984 150.216 58.5885 150.296 58.3379 150.455C58.0872 150.615 57.8981 150.836 57.7705 151.118C57.6429 151.396 57.5791 151.715 57.5791 152.075H55.9316C55.9316 151.496 56.0638 150.968 56.3281 150.489C56.5924 150.006 56.9753 149.623 57.4766 149.341C57.9779 149.054 58.5817 148.91 59.2881 148.91C59.9535 148.91 60.5186 149.022 60.9834 149.245C61.4482 149.468 61.8014 149.785 62.043 150.195C62.2891 150.605 62.4121 151.091 62.4121 151.651C62.4121 151.961 62.362 152.269 62.2617 152.574C62.1615 152.88 62.0179 153.185 61.8311 153.49C61.6488 153.791 61.4323 154.094 61.1816 154.399C60.931 154.7 60.6553 155.006 60.3545 155.315L58.2012 157.688H62.7949ZM70.501 153.278H71.4854C71.8682 153.278 72.1849 153.212 72.4355 153.08C72.6908 152.948 72.8799 152.766 73.0029 152.533C73.126 152.301 73.1875 152.034 73.1875 151.733C73.1875 151.419 73.1305 151.15 73.0166 150.927C72.9072 150.699 72.7386 150.523 72.5107 150.4C72.2874 150.277 72.0026 150.216 71.6562 150.216C71.3646 150.216 71.1003 150.275 70.8633 150.394C70.6309 150.507 70.4463 150.672 70.3096 150.886C70.1729 151.095 70.1045 151.346 70.1045 151.638H68.4502C68.4502 151.109 68.5892 150.64 68.8672 150.229C69.1452 149.819 69.5234 149.498 70.002 149.266C70.485 149.029 71.0273 148.91 71.6289 148.91C72.2715 148.91 72.832 149.017 73.3105 149.231C73.7936 149.441 74.1696 149.756 74.4385 150.175C74.7074 150.594 74.8418 151.114 74.8418 151.733C74.8418 152.016 74.7757 152.303 74.6436 152.595C74.5114 152.886 74.3154 153.153 74.0557 153.395C73.7959 153.632 73.4723 153.825 73.085 153.976C72.6976 154.121 72.2487 154.194 71.7383 154.194H70.501V153.278ZM70.501 154.563V153.661H71.7383C72.3216 153.661 72.8184 153.729 73.2285 153.866C73.6432 154.003 73.9805 154.192 74.2402 154.434C74.5 154.671 74.6891 154.942 74.8076 155.247C74.9307 155.552 74.9922 155.876 74.9922 156.218C74.9922 156.683 74.9079 157.097 74.7393 157.462C74.5752 157.822 74.3405 158.127 74.0352 158.378C73.7298 158.629 73.3721 158.818 72.9619 158.945C72.5563 159.073 72.1143 159.137 71.6357 159.137C71.2074 159.137 70.7972 159.077 70.4053 158.959C70.0133 158.84 69.6624 158.665 69.3525 158.433C69.0426 158.196 68.7965 157.902 68.6143 157.551C68.4365 157.195 68.3477 156.785 68.3477 156.32H69.9951C69.9951 156.617 70.0635 156.879 70.2002 157.106C70.3415 157.33 70.5374 157.505 70.7881 157.633C71.0433 157.76 71.335 157.824 71.6631 157.824C72.0094 157.824 72.3079 157.763 72.5586 157.64C72.8092 157.517 73.0007 157.334 73.1328 157.093C73.2695 156.851 73.3379 156.56 73.3379 156.218C73.3379 155.83 73.2627 155.516 73.1123 155.274C72.9619 155.033 72.7477 154.855 72.4697 154.741C72.1917 154.623 71.8636 154.563 71.4854 154.563H70.501ZM83.8799 155.452V156.765H76.7021L76.6475 155.773L80.9404 149.047H82.2598L80.8311 151.494L78.3633 155.452H83.8799ZM82.6357 149.047V159H80.9883V149.047H82.6357ZM87.21 154.372L85.8975 154.051L86.4375 149.047H91.8037V150.441H87.8047L87.5312 152.882C87.6862 152.791 87.9004 152.702 88.1738 152.615C88.4473 152.524 88.7594 152.479 89.1104 152.479C89.5798 152.479 89.999 152.556 90.3682 152.711C90.7419 152.861 91.0586 153.082 91.3184 153.374C91.5781 153.661 91.7764 154.012 91.9131 154.427C92.0498 154.837 92.1182 155.299 92.1182 155.814C92.1182 156.275 92.0498 156.705 91.9131 157.106C91.7809 157.507 91.5804 157.861 91.3115 158.166C91.0426 158.471 90.7031 158.711 90.293 158.884C89.8874 159.052 89.4066 159.137 88.8506 159.137C88.4359 159.137 88.0371 159.077 87.6543 158.959C87.276 158.836 86.9365 158.656 86.6357 158.419C86.335 158.177 86.0934 157.881 85.9111 157.53C85.7288 157.175 85.624 156.767 85.5967 156.307H87.21C87.251 156.63 87.3398 156.906 87.4766 157.134C87.6178 157.357 87.8047 157.528 88.0371 157.646C88.2695 157.765 88.5384 157.824 88.8438 157.824C89.1217 157.824 89.361 157.776 89.5615 157.681C89.762 157.58 89.9284 157.439 90.0605 157.257C90.1973 157.07 90.2975 156.851 90.3613 156.601C90.4297 156.35 90.4639 156.072 90.4639 155.767C90.4639 155.475 90.4251 155.208 90.3477 154.967C90.2747 154.725 90.1631 154.516 90.0127 154.338C89.8669 154.16 89.6823 154.023 89.459 153.928C89.2357 153.827 88.9782 153.777 88.6865 153.777C88.2946 153.777 87.9938 153.834 87.7842 153.948C87.5791 154.062 87.3877 154.203 87.21 154.372ZM98.9141 148.985H99.1191V150.332H99.0029C98.415 150.332 97.9069 150.423 97.4785 150.605C97.0547 150.788 96.7061 151.038 96.4326 151.357C96.1592 151.676 95.9541 152.05 95.8174 152.479C95.6852 152.902 95.6191 153.354 95.6191 153.832V155.397C95.6191 155.794 95.6624 156.145 95.749 156.45C95.8356 156.751 95.9564 157.004 96.1113 157.209C96.2708 157.41 96.4531 157.562 96.6582 157.667C96.8633 157.772 97.0843 157.824 97.3213 157.824C97.5674 157.824 97.7907 157.774 97.9912 157.674C98.1917 157.569 98.3626 157.425 98.5039 157.243C98.6452 157.061 98.7523 156.844 98.8252 156.594C98.8981 156.343 98.9346 156.07 98.9346 155.773C98.9346 155.491 98.8981 155.227 98.8252 154.98C98.7568 154.73 98.6543 154.511 98.5176 154.324C98.3809 154.133 98.21 153.985 98.0049 153.88C97.8044 153.771 97.5719 153.716 97.3076 153.716C96.9795 153.716 96.681 153.793 96.4121 153.948C96.1478 154.103 95.9336 154.306 95.7695 154.557C95.61 154.803 95.5234 155.065 95.5098 155.343L94.8809 155.138C94.9173 154.714 95.0107 154.333 95.1611 153.996C95.3161 153.659 95.5189 153.372 95.7695 153.135C96.0202 152.898 96.3096 152.718 96.6377 152.595C96.9704 152.467 97.335 152.403 97.7314 152.403C98.2145 152.403 98.6338 152.494 98.9893 152.677C99.3447 152.859 99.6387 153.107 99.8711 153.422C100.108 153.732 100.284 154.087 100.397 154.488C100.516 154.885 100.575 155.299 100.575 155.732C100.575 156.211 100.502 156.658 100.356 157.072C100.211 157.482 99.9964 157.842 99.7139 158.152C99.4359 158.462 99.0964 158.704 98.6953 158.877C98.2988 159.05 97.8477 159.137 97.3418 159.137C96.8086 159.137 96.3324 159.034 95.9131 158.829C95.4984 158.624 95.1452 158.341 94.8535 157.981C94.5664 157.621 94.3477 157.207 94.1973 156.737C94.0469 156.268 93.9717 155.771 93.9717 155.247V154.563C93.9717 153.807 94.0674 153.094 94.2588 152.424C94.4502 151.749 94.7441 151.155 95.1406 150.64C95.5417 150.125 96.0544 149.721 96.6787 149.43C97.3031 149.133 98.0482 148.985 98.9141 148.985ZM112.991 149.047V149.949L109.013 159H107.276L111.248 150.359H106.094V149.047H112.991ZM121.346 156.286C121.346 156.906 121.202 157.428 120.915 157.852C120.628 158.275 120.236 158.597 119.739 158.815C119.247 159.03 118.691 159.137 118.071 159.137C117.451 159.137 116.893 159.03 116.396 158.815C115.9 158.597 115.508 158.275 115.221 157.852C114.934 157.428 114.79 156.906 114.79 156.286C114.79 155.876 114.87 155.505 115.029 155.172C115.189 154.835 115.414 154.545 115.706 154.304C116.002 154.058 116.349 153.868 116.745 153.736C117.146 153.604 117.584 153.538 118.058 153.538C118.687 153.538 119.249 153.654 119.746 153.887C120.243 154.119 120.632 154.44 120.915 154.851C121.202 155.261 121.346 155.739 121.346 156.286ZM119.691 156.204C119.691 155.871 119.623 155.58 119.486 155.329C119.35 155.078 119.158 154.885 118.912 154.748C118.666 154.611 118.381 154.543 118.058 154.543C117.729 154.543 117.445 154.611 117.203 154.748C116.962 154.885 116.772 155.078 116.636 155.329C116.504 155.58 116.438 155.871 116.438 156.204C116.438 156.541 116.504 156.833 116.636 157.079C116.768 157.321 116.957 157.505 117.203 157.633C117.449 157.76 117.739 157.824 118.071 157.824C118.404 157.824 118.691 157.76 118.933 157.633C119.174 157.505 119.361 157.321 119.493 157.079C119.625 156.833 119.691 156.541 119.691 156.204ZM121.12 151.665C121.12 152.162 120.988 152.604 120.724 152.991C120.464 153.379 120.104 153.684 119.644 153.907C119.183 154.126 118.659 154.235 118.071 154.235C117.479 154.235 116.95 154.126 116.485 153.907C116.025 153.684 115.663 153.379 115.398 152.991C115.139 152.604 115.009 152.162 115.009 151.665C115.009 151.073 115.139 150.574 115.398 150.168C115.663 149.758 116.025 149.446 116.485 149.231C116.946 149.017 117.472 148.91 118.064 148.91C118.657 148.91 119.183 149.017 119.644 149.231C120.104 149.446 120.464 149.758 120.724 150.168C120.988 150.574 121.12 151.073 121.12 151.665ZM119.473 151.72C119.473 151.424 119.413 151.164 119.295 150.94C119.181 150.713 119.019 150.535 118.81 150.407C118.6 150.28 118.352 150.216 118.064 150.216C117.777 150.216 117.529 150.277 117.319 150.4C117.11 150.523 116.948 150.697 116.834 150.92C116.72 151.143 116.663 151.41 116.663 151.72C116.663 152.025 116.72 152.292 116.834 152.52C116.948 152.743 117.11 152.918 117.319 153.046C117.534 153.174 117.784 153.237 118.071 153.237C118.358 153.237 118.607 153.174 118.816 153.046C119.026 152.918 119.188 152.743 119.302 152.52C119.416 152.292 119.473 152.025 119.473 151.72ZM124.621 157.701H124.758C125.387 157.701 125.911 157.619 126.33 157.455C126.754 157.286 127.091 157.054 127.342 156.758C127.592 156.462 127.772 156.113 127.882 155.712C127.991 155.311 128.046 154.876 128.046 154.406V152.69C128.046 152.285 128.003 151.929 127.916 151.624C127.834 151.314 127.715 151.057 127.561 150.852C127.41 150.642 127.235 150.485 127.034 150.38C126.838 150.275 126.626 150.223 126.398 150.223C126.148 150.223 125.922 150.28 125.722 150.394C125.526 150.503 125.359 150.656 125.223 150.852C125.09 151.043 124.988 151.269 124.915 151.528C124.847 151.784 124.812 152.057 124.812 152.349C124.812 152.622 124.844 152.886 124.908 153.142C124.977 153.392 125.077 153.616 125.209 153.812C125.341 154.007 125.507 154.162 125.708 154.276C125.909 154.39 126.143 154.447 126.412 154.447C126.667 154.447 126.902 154.399 127.116 154.304C127.33 154.203 127.517 154.069 127.677 153.9C127.836 153.732 127.962 153.543 128.053 153.333C128.144 153.123 128.194 152.909 128.203 152.69L128.832 152.882C128.832 153.228 128.759 153.57 128.613 153.907C128.472 154.24 128.274 154.545 128.019 154.823C127.768 155.097 127.474 155.315 127.137 155.479C126.804 155.644 126.442 155.726 126.05 155.726C125.576 155.726 125.157 155.637 124.792 155.459C124.432 155.277 124.131 155.031 123.89 154.721C123.653 154.411 123.475 154.055 123.356 153.654C123.238 153.253 123.179 152.832 123.179 152.39C123.179 151.911 123.252 151.462 123.397 151.043C123.543 150.624 123.755 150.255 124.033 149.936C124.311 149.612 124.648 149.361 125.045 149.184C125.446 149.001 125.899 148.91 126.405 148.91C126.943 148.91 127.415 149.015 127.82 149.225C128.226 149.434 128.568 149.724 128.846 150.093C129.124 150.462 129.333 150.89 129.475 151.378C129.616 151.866 129.687 152.39 129.687 152.95V153.531C129.687 154.119 129.634 154.687 129.529 155.233C129.424 155.776 129.254 156.279 129.017 156.744C128.784 157.204 128.477 157.61 128.094 157.961C127.715 158.307 127.251 158.578 126.699 158.774C126.152 158.966 125.51 159.062 124.771 159.062H124.621V157.701ZM138.239 153.189V154.816C138.239 155.596 138.162 156.261 138.007 156.812C137.856 157.359 137.638 157.804 137.351 158.146C137.063 158.487 136.719 158.738 136.318 158.897C135.922 159.057 135.478 159.137 134.985 159.137C134.593 159.137 134.229 159.087 133.892 158.986C133.559 158.886 133.258 158.729 132.989 158.515C132.72 158.3 132.49 158.025 132.299 157.688C132.112 157.346 131.966 156.938 131.861 156.464C131.761 155.99 131.711 155.441 131.711 154.816V153.189C131.711 152.406 131.788 151.745 131.943 151.207C132.098 150.665 132.319 150.225 132.606 149.888C132.894 149.546 133.235 149.298 133.632 149.143C134.033 148.988 134.479 148.91 134.972 148.91C135.368 148.91 135.733 148.96 136.065 149.061C136.403 149.156 136.703 149.309 136.968 149.519C137.237 149.728 137.465 150.002 137.651 150.339C137.843 150.672 137.989 151.075 138.089 151.549C138.189 152.018 138.239 152.565 138.239 153.189ZM136.592 155.049V152.943C136.592 152.547 136.569 152.198 136.523 151.897C136.478 151.592 136.41 151.335 136.318 151.125C136.232 150.911 136.122 150.738 135.99 150.605C135.858 150.469 135.708 150.371 135.539 150.312C135.37 150.248 135.181 150.216 134.972 150.216C134.716 150.216 134.489 150.266 134.288 150.366C134.088 150.462 133.919 150.617 133.782 150.831C133.646 151.045 133.541 151.328 133.468 151.679C133.399 152.025 133.365 152.447 133.365 152.943V155.049C133.365 155.45 133.388 155.803 133.434 156.108C133.479 156.414 133.548 156.676 133.639 156.895C133.73 157.109 133.839 157.286 133.967 157.428C134.099 157.564 134.249 157.665 134.418 157.729C134.591 157.792 134.78 157.824 134.985 157.824C135.245 157.824 135.475 157.774 135.676 157.674C135.876 157.574 136.045 157.414 136.182 157.195C136.318 156.972 136.421 156.683 136.489 156.327C136.558 155.972 136.592 155.546 136.592 155.049ZM148.693 149.013V159H147.046V150.968L144.605 151.795V150.435L148.495 149.013H148.693ZM159.324 157.688V159H152.652V157.872L155.893 154.338C156.248 153.937 156.528 153.59 156.733 153.299C156.938 153.007 157.082 152.745 157.164 152.513C157.251 152.276 157.294 152.046 157.294 151.822C157.294 151.508 157.235 151.232 157.116 150.995C157.002 150.754 156.834 150.564 156.61 150.428C156.387 150.286 156.116 150.216 155.797 150.216C155.428 150.216 155.118 150.296 154.867 150.455C154.617 150.615 154.427 150.836 154.3 151.118C154.172 151.396 154.108 151.715 154.108 152.075H152.461C152.461 151.496 152.593 150.968 152.857 150.489C153.122 150.006 153.505 149.623 154.006 149.341C154.507 149.054 155.111 148.91 155.817 148.91C156.483 148.91 157.048 149.022 157.513 149.245C157.978 149.468 158.331 149.785 158.572 150.195C158.818 150.605 158.941 151.091 158.941 151.651C158.941 151.961 158.891 152.269 158.791 152.574C158.691 152.88 158.547 153.185 158.36 153.49C158.178 153.791 157.962 154.094 157.711 154.399C157.46 154.7 157.185 155.006 156.884 155.315L154.73 157.688H159.324ZM167.617 156.286C167.617 156.906 167.474 157.428 167.187 157.852C166.899 158.275 166.507 158.597 166.011 158.815C165.519 159.03 164.963 159.137 164.343 159.137C163.723 159.137 163.165 159.03 162.668 158.815C162.171 158.597 161.779 158.275 161.492 157.852C161.205 157.428 161.062 156.906 161.062 156.286C161.062 155.876 161.141 155.505 161.301 155.172C161.46 154.835 161.686 154.545 161.978 154.304C162.274 154.058 162.62 153.868 163.017 153.736C163.418 153.604 163.855 153.538 164.329 153.538C164.958 153.538 165.521 153.654 166.018 153.887C166.514 154.119 166.904 154.44 167.187 154.851C167.474 155.261 167.617 155.739 167.617 156.286ZM165.963 156.204C165.963 155.871 165.895 155.58 165.758 155.329C165.621 155.078 165.43 154.885 165.184 154.748C164.938 154.611 164.653 154.543 164.329 154.543C164.001 154.543 163.716 154.611 163.475 154.748C163.233 154.885 163.044 155.078 162.907 155.329C162.775 155.58 162.709 155.871 162.709 156.204C162.709 156.541 162.775 156.833 162.907 157.079C163.039 157.321 163.229 157.505 163.475 157.633C163.721 157.76 164.01 157.824 164.343 157.824C164.675 157.824 164.963 157.76 165.204 157.633C165.446 157.505 165.632 157.321 165.765 157.079C165.897 156.833 165.963 156.541 165.963 156.204ZM167.392 151.665C167.392 152.162 167.259 152.604 166.995 152.991C166.735 153.379 166.375 153.684 165.915 153.907C165.455 154.126 164.931 154.235 164.343 154.235C163.75 154.235 163.222 154.126 162.757 153.907C162.297 153.684 161.934 153.379 161.67 152.991C161.41 152.604 161.28 152.162 161.28 151.665C161.28 151.073 161.41 150.574 161.67 150.168C161.934 149.758 162.297 149.446 162.757 149.231C163.217 149.017 163.743 148.91 164.336 148.91C164.928 148.91 165.455 149.017 165.915 149.231C166.375 149.446 166.735 149.758 166.995 150.168C167.259 150.574 167.392 151.073 167.392 151.665ZM165.744 151.72C165.744 151.424 165.685 151.164 165.566 150.94C165.452 150.713 165.291 150.535 165.081 150.407C164.871 150.28 164.623 150.216 164.336 150.216C164.049 150.216 163.8 150.277 163.591 150.4C163.381 150.523 163.219 150.697 163.105 150.92C162.992 151.143 162.935 151.41 162.935 151.72C162.935 152.025 162.992 152.292 163.105 152.52C163.219 152.743 163.381 152.918 163.591 153.046C163.805 153.174 164.056 153.237 164.343 153.237C164.63 153.237 164.878 153.174 165.088 153.046C165.298 152.918 165.459 152.743 165.573 152.52C165.687 152.292 165.744 152.025 165.744 151.72ZM170.893 157.701H171.029C171.658 157.701 172.182 157.619 172.602 157.455C173.025 157.286 173.363 157.054 173.613 156.758C173.864 156.462 174.044 156.113 174.153 155.712C174.263 155.311 174.317 154.876 174.317 154.406V152.69C174.317 152.285 174.274 151.929 174.188 151.624C174.105 151.314 173.987 151.057 173.832 150.852C173.682 150.642 173.506 150.485 173.306 150.38C173.11 150.275 172.898 150.223 172.67 150.223C172.419 150.223 172.194 150.28 171.993 150.394C171.797 150.503 171.631 150.656 171.494 150.852C171.362 151.043 171.259 151.269 171.187 151.528C171.118 151.784 171.084 152.057 171.084 152.349C171.084 152.622 171.116 152.886 171.18 153.142C171.248 153.392 171.348 153.616 171.48 153.812C171.613 154.007 171.779 154.162 171.979 154.276C172.18 154.39 172.415 154.447 172.684 154.447C172.939 154.447 173.174 154.399 173.388 154.304C173.602 154.203 173.789 154.069 173.948 153.9C174.108 153.732 174.233 153.543 174.324 153.333C174.415 153.123 174.465 152.909 174.475 152.69L175.104 152.882C175.104 153.228 175.031 153.57 174.885 153.907C174.743 154.24 174.545 154.545 174.29 154.823C174.039 155.097 173.745 155.315 173.408 155.479C173.076 155.644 172.713 155.726 172.321 155.726C171.847 155.726 171.428 155.637 171.063 155.459C170.703 155.277 170.403 155.031 170.161 154.721C169.924 154.411 169.746 154.055 169.628 153.654C169.509 153.253 169.45 152.832 169.45 152.39C169.45 151.911 169.523 151.462 169.669 151.043C169.815 150.624 170.027 150.255 170.305 149.936C170.583 149.612 170.92 149.361 171.316 149.184C171.717 149.001 172.171 148.91 172.677 148.91C173.215 148.91 173.686 149.015 174.092 149.225C174.497 149.434 174.839 149.724 175.117 150.093C175.395 150.462 175.605 150.89 175.746 151.378C175.887 151.866 175.958 152.39 175.958 152.95V153.531C175.958 154.119 175.906 154.687 175.801 155.233C175.696 155.776 175.525 156.279 175.288 156.744C175.056 157.204 174.748 157.61 174.365 157.961C173.987 158.307 173.522 158.578 172.971 158.774C172.424 158.966 171.781 159.062 171.043 159.062H170.893V157.701Z" fill="white"/>
<path d="M256.416 27.9742H268.584V49.8367H256.416V27.9742Z" fill="#FF5F00"/>
<path d="M248.189 60.8409V58.5234C248.189 57.6348 247.648 57.0556 246.721 57.0556C246.258 57.0556 245.756 57.2101 245.408 57.7123C245.138 57.2873 244.751 57.0556 244.172 57.0556C243.786 57.0556 243.4 57.1714 243.09 57.5963V57.1328H242.279V60.8409H243.09V58.7937C243.09 58.1372 243.438 57.828 243.979 57.828C244.52 57.828 244.79 58.1757 244.79 58.7937V60.8409H245.601V58.7937C245.601 58.1372 245.987 57.828 246.49 57.828C247.03 57.828 247.301 58.1757 247.301 58.7937V60.8409H248.189ZM260.202 57.1328H258.889V56.0127H258.078V57.1328H257.344V57.8666H258.077V59.5663C258.077 60.4162 258.425 60.9182 259.352 60.9182C259.7 60.9182 260.086 60.8024 260.357 60.6479L260.125 59.9525C259.893 60.107 259.623 60.1457 259.429 60.1457C259.043 60.1457 258.889 59.914 258.889 59.5276V57.8666H260.202V57.1328ZM267.077 57.0554C266.614 57.0554 266.305 57.2873 266.112 57.5963V57.1328H265.301V60.8409H266.112V58.7551C266.112 58.1372 266.382 57.7895 266.884 57.7895C267.039 57.7895 267.232 57.8282 267.386 57.8668L267.618 57.0943C267.464 57.0556 267.232 57.0556 267.077 57.0556V57.0554ZM256.687 57.4418C256.301 57.1714 255.76 57.0556 255.18 57.0556C254.254 57.0556 253.636 57.5191 253.636 58.253C253.636 58.8711 254.099 59.2186 254.91 59.3346L255.296 59.3733C255.721 59.4503 255.953 59.5663 255.953 59.7595C255.953 60.0298 255.644 60.223 255.103 60.223C254.562 60.223 254.138 60.0298 253.867 59.8367L253.481 60.4547C253.906 60.7637 254.485 60.9182 255.064 60.9182C256.146 60.9182 256.764 60.4162 256.764 59.7208C256.764 59.0641 256.262 58.7164 255.489 58.6007L255.103 58.562C254.756 58.5232 254.485 58.4462 254.485 58.2144C254.485 57.944 254.756 57.7895 255.18 57.7895C255.644 57.7895 256.108 57.9825 256.339 58.0985L256.687 57.4418ZM278.241 57.0556C277.777 57.0556 277.468 57.2873 277.275 57.5963V57.1328H276.464V60.8409H277.275V58.7551C277.275 58.1372 277.545 57.7895 278.047 57.7895C278.202 57.7895 278.395 57.8282 278.549 57.8668L278.781 57.0943C278.627 57.0556 278.395 57.0556 278.241 57.0556ZM267.889 58.9869C267.889 60.107 268.661 60.9182 269.859 60.9182C270.399 60.9182 270.785 60.8024 271.172 60.4934L270.785 59.8367C270.477 60.0685 270.168 60.1843 269.82 60.1843C269.163 60.1843 268.7 59.7208 268.7 58.9869C268.7 58.2917 269.163 57.828 269.82 57.7895C270.168 57.7895 270.477 57.9053 270.785 58.1372L271.172 57.4805C270.785 57.1714 270.399 57.0556 269.859 57.0556C268.661 57.0556 267.889 57.8668 267.889 58.9869ZM275.382 58.9869V57.1328H274.571V57.5963C274.301 57.2488 273.914 57.0556 273.412 57.0556C272.369 57.0556 271.558 57.8668 271.558 58.9869C271.558 60.107 272.369 60.9182 273.412 60.9182C273.953 60.9182 274.339 60.7251 274.571 60.3774V60.8409H275.382V58.9869ZM272.408 58.9869C272.408 58.3302 272.833 57.7895 273.528 57.7895C274.185 57.7895 274.648 58.2917 274.648 58.9869C274.648 59.6435 274.185 60.1843 273.528 60.1843C272.833 60.1455 272.408 59.6435 272.408 58.9869ZM262.713 57.0556C261.631 57.0556 260.858 57.828 260.858 58.9869C260.858 60.1457 261.631 60.9182 262.751 60.9182C263.292 60.9182 263.833 60.7637 264.258 60.4162L263.871 59.8367C263.562 60.0685 263.176 60.223 262.79 60.223C262.288 60.223 261.786 59.9912 261.67 59.3344H264.412V59.0256C264.451 57.828 263.756 57.0556 262.713 57.0556H262.713ZM262.713 57.7508C263.215 57.7508 263.563 58.06 263.64 58.6394H261.708C261.786 58.1372 262.133 57.7508 262.713 57.7508ZM282.837 58.9869V55.665H282.026V57.5963C281.755 57.2488 281.369 57.0556 280.867 57.0556C279.824 57.0556 279.013 57.8668 279.013 58.9869C279.013 60.107 279.824 60.9182 280.867 60.9182C281.408 60.9182 281.794 60.7251 282.026 60.3774V60.8409H282.837V58.9869ZM279.863 58.9869C279.863 58.3302 280.288 57.7895 280.983 57.7895C281.64 57.7895 282.103 58.2917 282.103 58.9869C282.103 59.6435 281.64 60.1843 280.983 60.1843C280.288 60.1455 279.863 59.6435 279.863 58.9869ZM252.747 58.9869V57.1328H251.936V57.5963C251.665 57.2488 251.279 57.0556 250.777 57.0556C249.734 57.0556 248.923 57.8668 248.923 58.9869C248.923 60.107 249.734 60.9182 250.777 60.9182C251.318 60.9182 251.704 60.7251 251.936 60.3774V60.8409H252.747V58.9869ZM249.734 58.9869C249.734 58.3302 250.159 57.7895 250.854 57.7895C251.511 57.7895 251.975 58.2917 251.975 58.9869C251.975 59.6435 251.511 60.1843 250.854 60.1843C250.159 60.1455 249.734 59.6435 249.734 58.9869Z" fill="white"/>
<path d="M257.189 38.9055C257.189 34.4635 259.275 30.5236 262.48 27.9742C260.124 26.1201 257.15 25 253.906 25C246.219 25 240 31.2188 240 38.9055C240 46.5921 246.219 52.811 253.906 52.811C257.15 52.811 260.124 51.6909 262.48 49.8367C259.275 47.326 257.189 43.3475 257.189 38.9055Z" fill="#EB001B"/>
<path d="M285 38.9055C285 46.5921 278.781 52.811 271.094 52.811C267.849 52.811 264.875 51.6909 262.519 49.8367C265.764 47.2874 267.811 43.3475 267.811 38.9055C267.811 34.4635 265.725 30.5236 262.519 27.9742C264.875 26.1201 267.849 25 271.094 25C278.781 25 285 31.2575 285 38.9055H285Z" fill="#F79E1B"/>
<path d="M39.4199 54.9082V58.9961H37.3145V54.9082H39.4199ZM39.1602 77.2344V80.8984H37.0684V77.2344H39.1602ZM41.2246 72.8184C41.2246 72.2897 41.1152 71.8294 40.8965 71.4375C40.6868 71.0365 40.3405 70.6764 39.8574 70.3574C39.3743 70.0293 38.7272 69.724 37.916 69.4414C36.7493 69.0312 35.7285 68.571 34.8535 68.0605C33.9876 67.541 33.3132 66.903 32.8301 66.1465C32.3561 65.3809 32.1191 64.4284 32.1191 63.2891C32.1191 62.168 32.3743 61.1973 32.8848 60.377C33.4043 59.5566 34.1243 58.9232 35.0449 58.4766C35.9655 58.0299 37.041 57.8066 38.2715 57.8066C39.2194 57.8066 40.0716 57.9479 40.8281 58.2305C41.5938 58.513 42.2454 58.9277 42.7832 59.4746C43.321 60.0215 43.7311 60.696 44.0137 61.498C44.3053 62.291 44.4512 63.2025 44.4512 64.2324H41.1699C41.1699 63.6491 41.1016 63.1296 40.9648 62.6738C40.8372 62.209 40.6458 61.8171 40.3906 61.498C40.1354 61.1699 39.8255 60.9193 39.4609 60.7461C39.1055 60.5729 38.6999 60.4863 38.2441 60.4863C37.597 60.4863 37.0638 60.6094 36.6445 60.8555C36.2253 61.0924 35.9154 61.4206 35.7148 61.8398C35.5234 62.2591 35.4277 62.7376 35.4277 63.2754C35.4277 63.7949 35.528 64.2507 35.7285 64.6426C35.929 65.0345 36.2708 65.39 36.7539 65.709C37.2461 66.0189 37.9206 66.3333 38.7773 66.6523C39.9531 67.0716 40.9694 67.541 41.8262 68.0605C42.6921 68.571 43.3574 69.2044 43.8223 69.9609C44.2962 70.7083 44.5332 71.6517 44.5332 72.791C44.5332 73.9668 44.2598 74.9648 43.7129 75.7852C43.1751 76.6055 42.4186 77.2298 41.4434 77.6582C40.4772 78.0775 39.3516 78.2871 38.0664 78.2871C37.2552 78.2871 36.4486 78.1823 35.6465 77.9727C34.8535 77.7539 34.1335 77.3984 33.4863 76.9062C32.8392 76.4141 32.3242 75.7624 31.9414 74.9512C31.5586 74.1309 31.3672 73.1283 31.3672 71.9434H34.6758C34.6758 72.6543 34.7715 73.2467 34.9629 73.7207C35.1543 74.1947 35.4141 74.5684 35.7422 74.8418C36.0703 75.1152 36.4349 75.3112 36.8359 75.4297C37.2461 75.5482 37.6562 75.6074 38.0664 75.6074C38.75 75.6074 39.3242 75.4935 39.7891 75.2656C40.263 75.0286 40.6185 74.7005 40.8555 74.2812C41.1016 73.8529 41.2246 73.3652 41.2246 72.8184ZM50.877 68.7441L48.252 68.1016L49.332 58.0938H60.0645V60.8828H52.0664L51.5195 65.7637C51.8294 65.5814 52.2578 65.4036 52.8047 65.2305C53.3516 65.0482 53.9759 64.957 54.6777 64.957C55.6165 64.957 56.4551 65.112 57.1934 65.4219C57.9408 65.7227 58.5742 66.1647 59.0938 66.748C59.6133 67.3223 60.0098 68.0241 60.2832 68.8535C60.5566 69.6738 60.6934 70.599 60.6934 71.6289C60.6934 72.5495 60.5566 73.4108 60.2832 74.2129C60.0189 75.015 59.6178 75.7214 59.0801 76.332C58.5423 76.9427 57.8633 77.4212 57.043 77.7676C56.2318 78.1048 55.2702 78.2734 54.1582 78.2734C53.3288 78.2734 52.5312 78.1549 51.7656 77.918C51.0091 77.6719 50.3301 77.3118 49.7285 76.8379C49.127 76.3548 48.6439 75.7624 48.2793 75.0605C47.9147 74.3496 47.7051 73.5339 47.6504 72.6133H50.877C50.959 73.2604 51.1367 73.8118 51.4102 74.2676C51.6927 74.7142 52.0664 75.056 52.5312 75.293C52.9961 75.5299 53.5339 75.6484 54.1445 75.6484C54.7005 75.6484 55.179 75.5527 55.5801 75.3613C55.9811 75.1608 56.3138 74.8783 56.5781 74.5137C56.8516 74.14 57.0521 73.7025 57.1797 73.2012C57.3164 72.6999 57.3848 72.1439 57.3848 71.5332C57.3848 70.9499 57.3073 70.4167 57.1523 69.9336C57.0065 69.4505 56.7832 69.0312 56.4824 68.6758C56.1908 68.3203 55.8216 68.0469 55.375 67.8555C54.9284 67.6549 54.4134 67.5547 53.8301 67.5547C53.0462 67.5547 52.4447 67.6686 52.0254 67.8965C51.6152 68.1243 51.2324 68.4069 50.877 68.7441ZM66.6133 74.8281L66.5996 77.1797C66.5996 78.1094 66.3672 79.0664 65.9023 80.0508C65.4375 81.0352 64.8223 81.8464 64.0566 82.4844L62.293 81.459C62.5482 81.0488 62.7806 80.6341 62.9902 80.2148C63.1999 79.7956 63.3685 79.349 63.4961 78.875C63.6237 78.401 63.6875 77.877 63.6875 77.3027V74.8281H66.6133ZM82.8145 58.0938V59.8984L74.8574 78H71.3848L79.3281 60.7188H69.0195V58.0938H82.8145ZM88.9668 68.7441L86.3418 68.1016L87.4219 58.0938H98.1543V60.8828H90.1562L89.6094 65.7637C89.9193 65.5814 90.3477 65.4036 90.8945 65.2305C91.4414 65.0482 92.0658 64.957 92.7676 64.957C93.7064 64.957 94.5449 65.112 95.2832 65.4219C96.0306 65.7227 96.6641 66.1647 97.1836 66.748C97.7031 67.3223 98.0996 68.0241 98.373 68.8535C98.6465 69.6738 98.7832 70.599 98.7832 71.6289C98.7832 72.5495 98.6465 73.4108 98.373 74.2129C98.1087 75.015 97.7077 75.7214 97.1699 76.332C96.6322 76.9427 95.9531 77.4212 95.1328 77.7676C94.3216 78.1048 93.36 78.2734 92.248 78.2734C91.4186 78.2734 90.6211 78.1549 89.8555 77.918C89.099 77.6719 88.4199 77.3118 87.8184 76.8379C87.2168 76.3548 86.7337 75.7624 86.3691 75.0605C86.0046 74.3496 85.7949 73.5339 85.7402 72.6133H88.9668C89.0488 73.2604 89.2266 73.8118 89.5 74.2676C89.7826 74.7142 90.1562 75.056 90.6211 75.293C91.0859 75.5299 91.6237 75.6484 92.2344 75.6484C92.7904 75.6484 93.2689 75.5527 93.6699 75.3613C94.071 75.1608 94.4036 74.8783 94.668 74.5137C94.9414 74.14 95.1419 73.7025 95.2695 73.2012C95.4062 72.6999 95.4746 72.1439 95.4746 71.5332C95.4746 70.9499 95.3971 70.4167 95.2422 69.9336C95.0964 69.4505 94.873 69.0312 94.5723 68.6758C94.2806 68.3203 93.9115 68.0469 93.4648 67.8555C93.0182 67.6549 92.5033 67.5547 91.9199 67.5547C91.1361 67.5547 90.5345 67.6686 90.1152 67.8965C89.7051 68.1243 89.3223 68.4069 88.9668 68.7441ZM114.396 66.3789V69.6328C114.396 71.1914 114.242 72.5221 113.932 73.625C113.631 74.7188 113.193 75.6074 112.619 76.291C112.045 76.9746 111.357 77.4759 110.555 77.7949C109.762 78.1139 108.873 78.2734 107.889 78.2734C107.105 78.2734 106.376 78.1732 105.701 77.9727C105.036 77.7721 104.434 77.4577 103.896 77.0293C103.359 76.6009 102.898 76.0495 102.516 75.375C102.142 74.6914 101.85 73.8757 101.641 72.9277C101.44 71.9798 101.34 70.8815 101.34 69.6328V66.3789C101.34 64.8112 101.495 63.4896 101.805 62.4141C102.115 61.3294 102.557 60.4499 103.131 59.7754C103.705 59.0918 104.389 58.5951 105.182 58.2852C105.984 57.9753 106.877 57.8203 107.861 57.8203C108.654 57.8203 109.383 57.9206 110.049 58.1211C110.723 58.3125 111.325 58.6178 111.854 59.0371C112.391 59.4564 112.847 60.0033 113.221 60.6777C113.604 61.3431 113.895 62.1497 114.096 63.0977C114.296 64.0365 114.396 65.1302 114.396 66.3789ZM111.102 70.0977V65.8867C111.102 65.0938 111.056 64.3965 110.965 63.7949C110.874 63.1842 110.737 62.6693 110.555 62.25C110.382 61.8216 110.163 61.4753 109.898 61.2109C109.634 60.9375 109.333 60.7415 108.996 60.623C108.659 60.4954 108.281 60.4316 107.861 60.4316C107.351 60.4316 106.895 60.5319 106.494 60.7324C106.093 60.9238 105.756 61.2337 105.482 61.6621C105.209 62.0905 104.999 62.6556 104.854 63.3574C104.717 64.0501 104.648 64.8932 104.648 65.8867V70.0977C104.648 70.8997 104.694 71.6061 104.785 72.2168C104.876 72.8275 105.013 73.3516 105.195 73.7891C105.378 74.2174 105.596 74.5729 105.852 74.8555C106.116 75.1289 106.417 75.3294 106.754 75.457C107.1 75.5846 107.479 75.6484 107.889 75.6484C108.408 75.6484 108.868 75.5482 109.27 75.3477C109.671 75.1471 110.008 74.8281 110.281 74.3906C110.555 73.944 110.76 73.3652 110.896 72.6543C111.033 71.9434 111.102 71.0911 111.102 70.0977ZM120.617 74.8281L120.604 77.1797C120.604 78.1094 120.371 79.0664 119.906 80.0508C119.441 81.0352 118.826 81.8464 118.061 82.4844L116.297 81.459C116.552 81.0488 116.785 80.6341 116.994 80.2148C117.204 79.7956 117.372 79.349 117.5 78.875C117.628 78.401 117.691 77.877 117.691 77.3027V74.8281H120.617ZM136.941 75.375V78H123.598V75.7441L130.078 68.6758C130.789 67.8737 131.35 67.181 131.76 66.5977C132.17 66.0143 132.457 65.4902 132.621 65.0254C132.794 64.5514 132.881 64.0911 132.881 63.6445C132.881 63.0156 132.762 62.4642 132.525 61.9902C132.298 61.5072 131.96 61.1289 131.514 60.8555C131.067 60.5729 130.525 60.4316 129.887 60.4316C129.148 60.4316 128.529 60.5911 128.027 60.9102C127.526 61.2292 127.148 61.6712 126.893 62.2363C126.637 62.7923 126.51 63.4303 126.51 64.1504H123.215C123.215 62.9928 123.479 61.9355 124.008 60.9785C124.536 60.0124 125.302 59.2467 126.305 58.6816C127.307 58.1074 128.515 57.8203 129.928 57.8203C131.258 57.8203 132.389 58.0436 133.318 58.4902C134.248 58.9368 134.954 59.5703 135.438 60.3906C135.93 61.2109 136.176 62.1816 136.176 63.3027C136.176 63.9225 136.076 64.5378 135.875 65.1484C135.674 65.7591 135.387 66.3698 135.014 66.9805C134.649 67.582 134.216 68.1882 133.715 68.7988C133.214 69.4004 132.662 70.0111 132.061 70.6309L127.754 75.375H136.941ZM152.486 66.3789V69.6328C152.486 71.1914 152.331 72.5221 152.021 73.625C151.721 74.7188 151.283 75.6074 150.709 76.291C150.135 76.9746 149.447 77.4759 148.645 77.7949C147.852 78.1139 146.963 78.2734 145.979 78.2734C145.195 78.2734 144.465 78.1732 143.791 77.9727C143.126 77.7721 142.524 77.4577 141.986 77.0293C141.449 76.6009 140.988 76.0495 140.605 75.375C140.232 74.6914 139.94 73.8757 139.73 72.9277C139.53 71.9798 139.43 70.8815 139.43 69.6328V66.3789C139.43 64.8112 139.585 63.4896 139.895 62.4141C140.204 61.3294 140.646 60.4499 141.221 59.7754C141.795 59.0918 142.479 58.5951 143.271 58.2852C144.074 57.9753 144.967 57.8203 145.951 57.8203C146.744 57.8203 147.473 57.9206 148.139 58.1211C148.813 58.3125 149.415 58.6178 149.943 59.0371C150.481 59.4564 150.937 60.0033 151.311 60.6777C151.693 61.3431 151.985 62.1497 152.186 63.0977C152.386 64.0365 152.486 65.1302 152.486 66.3789ZM149.191 70.0977V65.8867C149.191 65.0938 149.146 64.3965 149.055 63.7949C148.964 63.1842 148.827 62.6693 148.645 62.25C148.471 61.8216 148.253 61.4753 147.988 61.2109C147.724 60.9375 147.423 60.7415 147.086 60.623C146.749 60.4954 146.37 60.4316 145.951 60.4316C145.441 60.4316 144.985 60.5319 144.584 60.7324C144.183 60.9238 143.846 61.2337 143.572 61.6621C143.299 62.0905 143.089 62.6556 142.943 63.3574C142.807 64.0501 142.738 64.8932 142.738 65.8867V70.0977C142.738 70.8997 142.784 71.6061 142.875 72.2168C142.966 72.8275 143.103 73.3516 143.285 73.7891C143.467 74.2174 143.686 74.5729 143.941 74.8555C144.206 75.1289 144.507 75.3294 144.844 75.457C145.19 75.5846 145.568 75.6484 145.979 75.6484C146.498 75.6484 146.958 75.5482 147.359 75.3477C147.76 75.1471 148.098 74.8281 148.371 74.3906C148.645 73.944 148.85 73.3652 148.986 72.6543C149.123 71.9434 149.191 71.0911 149.191 70.0977Z" fill="white"/>
<path opacity="0.54" d="M36.8906 39.7598H38.5996C38.5449 40.4115 38.3626 40.9925 38.0527 41.5029C37.7428 42.0088 37.3076 42.4076 36.7471 42.6992C36.1865 42.9909 35.5052 43.1367 34.7031 43.1367C34.0879 43.1367 33.5342 43.0273 33.042 42.8086C32.5498 42.5853 32.1283 42.2708 31.7773 41.8652C31.4264 41.4551 31.1576 40.9606 30.9707 40.3818C30.7884 39.8031 30.6973 39.1559 30.6973 38.4404V37.6133C30.6973 36.8978 30.7907 36.2507 30.9775 35.6719C31.1689 35.0931 31.4424 34.5986 31.7979 34.1885C32.1533 33.7738 32.5794 33.457 33.0762 33.2383C33.5775 33.0195 34.1403 32.9102 34.7646 32.9102C35.5576 32.9102 36.2275 33.056 36.7744 33.3477C37.3213 33.6393 37.7451 34.0426 38.0459 34.5576C38.3512 35.0726 38.5381 35.6628 38.6064 36.3281H36.8975C36.8519 35.8997 36.7516 35.5329 36.5967 35.2275C36.4463 34.9222 36.223 34.6898 35.9268 34.5303C35.6305 34.3662 35.2432 34.2842 34.7646 34.2842C34.3727 34.2842 34.0309 34.3571 33.7393 34.5029C33.4476 34.6488 33.2038 34.863 33.0078 35.1455C32.8118 35.4281 32.6637 35.7767 32.5635 36.1914C32.4678 36.6016 32.4199 37.071 32.4199 37.5996V38.4404C32.4199 38.9417 32.4632 39.3975 32.5498 39.8076C32.641 40.2132 32.7777 40.5618 32.96 40.8535C33.1468 41.1452 33.3838 41.3708 33.6709 41.5303C33.958 41.6898 34.3021 41.7695 34.7031 41.7695C35.1908 41.7695 35.585 41.6921 35.8857 41.5371C36.1911 41.3822 36.4212 41.1566 36.5762 40.8604C36.7357 40.5596 36.8405 40.1927 36.8906 39.7598ZM44.4443 41.2568V35.6035H46.0986V43H44.54L44.4443 41.2568ZM44.6768 39.7188L45.2305 39.7051C45.2305 40.2018 45.1758 40.6598 45.0664 41.0791C44.957 41.4938 44.7884 41.8561 44.5605 42.166C44.3327 42.4714 44.041 42.7106 43.6855 42.8838C43.3301 43.0524 42.904 43.1367 42.4072 43.1367C42.0472 43.1367 41.7168 43.0843 41.416 42.9795C41.1152 42.8747 40.8555 42.7129 40.6367 42.4941C40.4225 42.2754 40.2562 41.9906 40.1377 41.6396C40.0192 41.2887 39.96 40.8695 39.96 40.3818V35.6035H41.6074V40.3955C41.6074 40.6644 41.6393 40.89 41.7031 41.0723C41.7669 41.25 41.8535 41.3936 41.9629 41.5029C42.0723 41.6123 42.1999 41.6898 42.3457 41.7354C42.4915 41.7809 42.6465 41.8037 42.8105 41.8037C43.2799 41.8037 43.6491 41.7126 43.918 41.5303C44.1914 41.3434 44.3851 41.0928 44.499 40.7783C44.6175 40.4639 44.6768 40.1107 44.6768 39.7188ZM49.4414 37.0117V43H47.7939V35.6035H49.3662L49.4414 37.0117ZM51.7041 35.5557L51.6904 37.0869C51.5902 37.0687 51.4808 37.055 51.3623 37.0459C51.2484 37.0368 51.1344 37.0322 51.0205 37.0322C50.738 37.0322 50.4896 37.0732 50.2754 37.1553C50.0612 37.2327 49.8812 37.3467 49.7354 37.4971C49.5941 37.6429 49.4847 37.8206 49.4072 38.0303C49.3298 38.2399 49.2842 38.4746 49.2705 38.7344L48.8945 38.7617C48.8945 38.2969 48.9401 37.8662 49.0312 37.4697C49.1224 37.0732 49.2591 36.7246 49.4414 36.4238C49.6283 36.123 49.8607 35.8883 50.1387 35.7197C50.4212 35.5511 50.7471 35.4668 51.1162 35.4668C51.2165 35.4668 51.3236 35.4759 51.4375 35.4941C51.556 35.5124 51.6449 35.5329 51.7041 35.5557ZM54.3906 37.0117V43H52.7432V35.6035H54.3154L54.3906 37.0117ZM56.6533 35.5557L56.6396 37.0869C56.5394 37.0687 56.43 37.055 56.3115 37.0459C56.1976 37.0368 56.0837 37.0322 55.9697 37.0322C55.6872 37.0322 55.4388 37.0732 55.2246 37.1553C55.0104 37.2327 54.8304 37.3467 54.6846 37.4971C54.5433 37.6429 54.4339 37.8206 54.3564 38.0303C54.279 38.2399 54.2334 38.4746 54.2197 38.7344L53.8438 38.7617C53.8438 38.2969 53.8893 37.8662 53.9805 37.4697C54.0716 37.0732 54.2083 36.7246 54.3906 36.4238C54.5775 36.123 54.8099 35.8883 55.0879 35.7197C55.3704 35.5511 55.6963 35.4668 56.0654 35.4668C56.1657 35.4668 56.2728 35.4759 56.3867 35.4941C56.5052 35.5124 56.5941 35.5329 56.6533 35.5557ZM60.8096 43.1367C60.2627 43.1367 59.7682 43.0479 59.3262 42.8701C58.8887 42.6878 58.515 42.4349 58.2051 42.1113C57.8997 41.7878 57.665 41.4072 57.501 40.9697C57.3369 40.5322 57.2549 40.0605 57.2549 39.5547V39.2812C57.2549 38.7025 57.3392 38.1784 57.5078 37.709C57.6764 37.2396 57.9111 36.8385 58.2119 36.5059C58.5127 36.1686 58.8682 35.9111 59.2783 35.7334C59.6885 35.5557 60.1328 35.4668 60.6113 35.4668C61.14 35.4668 61.6025 35.5557 61.999 35.7334C62.3955 35.9111 62.7236 36.1618 62.9834 36.4854C63.2477 36.8044 63.4437 37.1849 63.5713 37.627C63.7035 38.069 63.7695 38.5566 63.7695 39.0898V39.7939H58.0547V38.6113H62.1426V38.4814C62.1335 38.1852 62.0742 37.9072 61.9648 37.6475C61.86 37.3877 61.6982 37.1781 61.4795 37.0186C61.2607 36.859 60.9691 36.7793 60.6045 36.7793C60.3311 36.7793 60.0872 36.8385 59.873 36.957C59.6634 37.071 59.488 37.2373 59.3467 37.4561C59.2054 37.6748 59.096 37.9391 59.0186 38.249C58.9456 38.5544 58.9092 38.8984 58.9092 39.2812V39.5547C58.9092 39.8783 58.9525 40.179 59.0391 40.457C59.1302 40.7305 59.2624 40.9697 59.4355 41.1748C59.6087 41.3799 59.8184 41.5417 60.0645 41.6602C60.3105 41.7741 60.5908 41.8311 60.9053 41.8311C61.3018 41.8311 61.6549 41.7513 61.9648 41.5918C62.2747 41.4323 62.5436 41.2067 62.7715 40.915L63.6396 41.7559C63.4801 41.9883 63.2728 42.2116 63.0176 42.4258C62.7624 42.6354 62.4502 42.8063 62.0811 42.9385C61.7165 43.0706 61.2926 43.1367 60.8096 43.1367ZM66.6885 37.1826V43H65.041V35.6035H66.5928L66.6885 37.1826ZM66.3945 39.0283L65.8613 39.0215C65.8659 38.4974 65.9388 38.0166 66.0801 37.5791C66.2259 37.1416 66.4264 36.7656 66.6816 36.4512C66.9414 36.1367 67.2513 35.8952 67.6113 35.7266C67.9714 35.5534 68.3724 35.4668 68.8145 35.4668C69.1699 35.4668 69.4912 35.5169 69.7783 35.6172C70.07 35.7129 70.3184 35.8701 70.5234 36.0889C70.7331 36.3076 70.8926 36.5924 71.002 36.9434C71.1113 37.2897 71.166 37.7158 71.166 38.2217V43H69.5117V38.2148C69.5117 37.8594 69.4593 37.5791 69.3545 37.374C69.2542 37.1644 69.1061 37.0163 68.9102 36.9297C68.7188 36.8385 68.4795 36.793 68.1924 36.793C67.9098 36.793 67.6569 36.8522 67.4336 36.9707C67.2103 37.0892 67.0212 37.251 66.8662 37.4561C66.7158 37.6611 66.5996 37.8981 66.5176 38.167C66.4355 38.4359 66.3945 38.723 66.3945 39.0283ZM76.2383 35.6035V36.8066H72.0684V35.6035H76.2383ZM73.2715 33.792H74.9189V40.9561C74.9189 41.1839 74.9508 41.3594 75.0146 41.4824C75.083 41.6009 75.1764 41.6807 75.2949 41.7217C75.4134 41.7627 75.5524 41.7832 75.7119 41.7832C75.8258 41.7832 75.9352 41.7764 76.04 41.7627C76.1449 41.749 76.2292 41.7354 76.293 41.7217L76.2998 42.9795C76.1631 43.0205 76.0036 43.057 75.8213 43.0889C75.6436 43.1208 75.4385 43.1367 75.2061 43.1367C74.8278 43.1367 74.4928 43.0706 74.2012 42.9385C73.9095 42.8018 73.6816 42.5807 73.5176 42.2754C73.3535 41.9701 73.2715 41.5645 73.2715 41.0586V33.792ZM84.8926 38.502H82.3564L82.3428 37.251H84.5576C84.9313 37.251 85.248 37.1963 85.5078 37.0869C85.7721 36.973 85.9727 36.8112 86.1094 36.6016C86.2461 36.3874 86.3145 36.1299 86.3145 35.8291C86.3145 35.4964 86.2507 35.2253 86.123 35.0156C85.9954 34.806 85.7995 34.6533 85.5352 34.5576C85.2754 34.4619 84.9427 34.4141 84.5371 34.4141H82.876V43H81.1602V33.0469H84.5371C85.084 33.0469 85.5716 33.0993 86 33.2041C86.4329 33.3089 86.7998 33.473 87.1006 33.6963C87.4059 33.915 87.6361 34.193 87.791 34.5303C87.9505 34.8675 88.0303 35.2686 88.0303 35.7334C88.0303 36.1436 87.9323 36.5195 87.7363 36.8613C87.5404 37.1986 87.251 37.4743 86.8682 37.6885C86.4854 37.9027 86.0091 38.0303 85.4395 38.0713L84.8926 38.502ZM84.8174 43H81.8164L82.5889 41.6396H84.8174C85.2048 41.6396 85.5283 41.5758 85.7881 41.4482C86.0479 41.3161 86.2415 41.1361 86.3691 40.9082C86.5013 40.6758 86.5674 40.4046 86.5674 40.0947C86.5674 39.7712 86.5104 39.4909 86.3965 39.2539C86.2826 39.0124 86.1025 38.8278 85.8564 38.7002C85.6104 38.568 85.2891 38.502 84.8926 38.502H82.9648L82.9785 37.251H85.4873L85.877 37.7227C86.4238 37.7409 86.8727 37.8617 87.2236 38.085C87.5791 38.3083 87.8434 38.5977 88.0166 38.9531C88.1898 39.3086 88.2764 39.6914 88.2764 40.1016C88.2764 40.735 88.1374 41.266 87.8594 41.6943C87.5859 42.1227 87.1917 42.4486 86.6768 42.6719C86.1618 42.8906 85.542 43 84.8174 43ZM94.0117 41.5166V37.9893C94.0117 37.7249 93.9639 37.4971 93.8682 37.3057C93.7725 37.1143 93.6266 36.9661 93.4307 36.8613C93.2393 36.7565 92.9977 36.7041 92.7061 36.7041C92.4372 36.7041 92.2048 36.7497 92.0088 36.8408C91.8128 36.932 91.6602 37.055 91.5508 37.21C91.4414 37.3649 91.3867 37.5404 91.3867 37.7363H89.7461C89.7461 37.4447 89.8167 37.1621 89.958 36.8887C90.0993 36.6152 90.3044 36.3714 90.5732 36.1572C90.8421 35.943 91.1634 35.7744 91.5371 35.6514C91.9108 35.5283 92.3301 35.4668 92.7949 35.4668C93.3509 35.4668 93.8431 35.5602 94.2715 35.7471C94.7044 35.9339 95.0439 36.2165 95.29 36.5947C95.5407 36.9684 95.666 37.4378 95.666 38.0029V41.291C95.666 41.6283 95.6888 41.9313 95.7344 42.2002C95.7845 42.4645 95.8551 42.6947 95.9463 42.8906V43H94.2578C94.1803 42.8223 94.1188 42.5967 94.0732 42.3232C94.0322 42.0452 94.0117 41.7764 94.0117 41.5166ZM94.251 38.502L94.2646 39.5205H93.082C92.7767 39.5205 92.5078 39.5501 92.2754 39.6094C92.043 39.6641 91.8493 39.7461 91.6943 39.8555C91.5394 39.9648 91.4232 40.097 91.3457 40.252C91.2682 40.4069 91.2295 40.5824 91.2295 40.7783C91.2295 40.9743 91.2751 41.1543 91.3662 41.3184C91.4574 41.4779 91.5895 41.6032 91.7627 41.6943C91.9404 41.7855 92.1546 41.8311 92.4053 41.8311C92.7425 41.8311 93.0365 41.7627 93.2871 41.626C93.5423 41.4847 93.7428 41.3138 93.8887 41.1133C94.0345 40.9082 94.112 40.7145 94.1211 40.5322L94.6543 41.2637C94.5996 41.4505 94.5062 41.651 94.374 41.8652C94.2419 42.0794 94.0687 42.2845 93.8545 42.4805C93.6449 42.6719 93.3919 42.8291 93.0957 42.9521C92.804 43.0752 92.4668 43.1367 92.084 43.1367C91.6009 43.1367 91.1702 43.041 90.792 42.8496C90.4137 42.6536 90.1175 42.3916 89.9033 42.0635C89.6891 41.7308 89.582 41.3548 89.582 40.9355C89.582 40.5436 89.6549 40.1973 89.8008 39.8965C89.9512 39.5911 90.1699 39.3359 90.457 39.1309C90.7487 38.9258 91.1042 38.7708 91.5234 38.666C91.9427 38.5566 92.4212 38.502 92.959 38.502H94.251ZM99.1523 32.5V43H97.498V32.5H99.1523ZM105.127 41.5166V37.9893C105.127 37.7249 105.079 37.4971 104.983 37.3057C104.888 37.1143 104.742 36.9661 104.546 36.8613C104.354 36.7565 104.113 36.7041 103.821 36.7041C103.552 36.7041 103.32 36.7497 103.124 36.8408C102.928 36.932 102.775 37.055 102.666 37.21C102.557 37.3649 102.502 37.5404 102.502 37.7363H100.861C100.861 37.4447 100.932 37.1621 101.073 36.8887C101.215 36.6152 101.42 36.3714 101.688 36.1572C101.957 35.943 102.279 35.7744 102.652 35.6514C103.026 35.5283 103.445 35.4668 103.91 35.4668C104.466 35.4668 104.958 35.5602 105.387 35.7471C105.82 35.9339 106.159 36.2165 106.405 36.5947C106.656 36.9684 106.781 37.4378 106.781 38.0029V41.291C106.781 41.6283 106.804 41.9313 106.85 42.2002C106.9 42.4645 106.97 42.6947 107.062 42.8906V43H105.373C105.296 42.8223 105.234 42.5967 105.188 42.3232C105.147 42.0452 105.127 41.7764 105.127 41.5166ZM105.366 38.502L105.38 39.5205H104.197C103.892 39.5205 103.623 39.5501 103.391 39.6094C103.158 39.6641 102.965 39.7461 102.81 39.8555C102.655 39.9648 102.538 40.097 102.461 40.252C102.383 40.4069 102.345 40.5824 102.345 40.7783C102.345 40.9743 102.39 41.1543 102.481 41.3184C102.573 41.4779 102.705 41.6032 102.878 41.6943C103.056 41.7855 103.27 41.8311 103.521 41.8311C103.858 41.8311 104.152 41.7627 104.402 41.626C104.658 41.4847 104.858 41.3138 105.004 41.1133C105.15 40.9082 105.227 40.7145 105.236 40.5322L105.77 41.2637C105.715 41.4505 105.621 41.651 105.489 41.8652C105.357 42.0794 105.184 42.2845 104.97 42.4805C104.76 42.6719 104.507 42.8291 104.211 42.9521C103.919 43.0752 103.582 43.1367 103.199 43.1367C102.716 43.1367 102.285 43.041 101.907 42.8496C101.529 42.6536 101.233 42.3916 101.019 42.0635C100.804 41.7308 100.697 41.3548 100.697 40.9355C100.697 40.5436 100.77 40.1973 100.916 39.8965C101.066 39.5911 101.285 39.3359 101.572 39.1309C101.864 38.9258 102.219 38.7708 102.639 38.666C103.058 38.5566 103.536 38.502 104.074 38.502H105.366ZM110.138 37.1826V43H108.49V35.6035H110.042L110.138 37.1826ZM109.844 39.0283L109.311 39.0215C109.315 38.4974 109.388 38.0166 109.529 37.5791C109.675 37.1416 109.876 36.7656 110.131 36.4512C110.391 36.1367 110.701 35.8952 111.061 35.7266C111.421 35.5534 111.822 35.4668 112.264 35.4668C112.619 35.4668 112.94 35.5169 113.228 35.6172C113.519 35.7129 113.768 35.8701 113.973 36.0889C114.182 36.3076 114.342 36.5924 114.451 36.9434C114.561 37.2897 114.615 37.7158 114.615 38.2217V43H112.961V38.2148C112.961 37.8594 112.909 37.5791 112.804 37.374C112.703 37.1644 112.555 37.0163 112.359 36.9297C112.168 36.8385 111.929 36.793 111.642 36.793C111.359 36.793 111.106 36.8522 110.883 36.9707C110.66 37.0892 110.47 37.251 110.315 37.4561C110.165 37.6611 110.049 37.8981 109.967 38.167C109.885 38.4359 109.844 38.723 109.844 39.0283ZM119.318 41.8242C119.587 41.8242 119.829 41.7718 120.043 41.667C120.262 41.5576 120.437 41.4072 120.569 41.2158C120.706 41.0244 120.781 40.8034 120.795 40.5527H122.347C122.338 41.0312 122.196 41.4665 121.923 41.8584C121.649 42.2503 121.287 42.5625 120.836 42.7949C120.385 43.0228 119.886 43.1367 119.339 43.1367C118.774 43.1367 118.282 43.041 117.862 42.8496C117.443 42.6536 117.094 42.3848 116.816 42.043C116.538 41.7012 116.329 41.307 116.188 40.8604C116.051 40.4137 115.982 39.9352 115.982 39.4248V39.1855C115.982 38.6751 116.051 38.1966 116.188 37.75C116.329 37.2988 116.538 36.9023 116.816 36.5605C117.094 36.2188 117.443 35.9521 117.862 35.7607C118.282 35.5648 118.771 35.4668 119.332 35.4668C119.924 35.4668 120.444 35.5853 120.891 35.8223C121.337 36.0547 121.688 36.3805 121.943 36.7998C122.203 37.2145 122.338 37.6976 122.347 38.249H120.795C120.781 37.9756 120.713 37.7295 120.59 37.5107C120.471 37.2874 120.303 37.1097 120.084 36.9775C119.87 36.8454 119.612 36.7793 119.312 36.7793C118.979 36.7793 118.703 36.8477 118.484 36.9844C118.266 37.1165 118.095 37.2988 117.972 37.5312C117.849 37.7591 117.76 38.0166 117.705 38.3037C117.655 38.5863 117.63 38.8802 117.63 39.1855V39.4248C117.63 39.7301 117.655 40.0264 117.705 40.3135C117.755 40.6006 117.842 40.8581 117.965 41.0859C118.092 41.3092 118.266 41.4893 118.484 41.626C118.703 41.7581 118.981 41.8242 119.318 41.8242ZM126.872 43.1367C126.325 43.1367 125.831 43.0479 125.389 42.8701C124.951 42.6878 124.577 42.4349 124.268 42.1113C123.962 41.7878 123.728 41.4072 123.563 40.9697C123.399 40.5322 123.317 40.0605 123.317 39.5547V39.2812C123.317 38.7025 123.402 38.1784 123.57 37.709C123.739 37.2396 123.974 36.8385 124.274 36.5059C124.575 36.1686 124.931 35.9111 125.341 35.7334C125.751 35.5557 126.195 35.4668 126.674 35.4668C127.202 35.4668 127.665 35.5557 128.062 35.7334C128.458 35.9111 128.786 36.1618 129.046 36.4854C129.31 36.8044 129.506 37.1849 129.634 37.627C129.766 38.069 129.832 38.5566 129.832 39.0898V39.7939H124.117V38.6113H128.205V38.4814C128.196 38.1852 128.137 37.9072 128.027 37.6475C127.923 37.3877 127.761 37.1781 127.542 37.0186C127.323 36.859 127.032 36.7793 126.667 36.7793C126.394 36.7793 126.15 36.8385 125.936 36.957C125.726 37.071 125.55 37.2373 125.409 37.4561C125.268 37.6748 125.159 37.9391 125.081 38.249C125.008 38.5544 124.972 38.8984 124.972 39.2812V39.5547C124.972 39.8783 125.015 40.179 125.102 40.457C125.193 40.7305 125.325 40.9697 125.498 41.1748C125.671 41.3799 125.881 41.5417 126.127 41.6602C126.373 41.7741 126.653 41.8311 126.968 41.8311C127.364 41.8311 127.717 41.7513 128.027 41.5918C128.337 41.4323 128.606 41.2067 128.834 40.915L129.702 41.7559C129.543 41.9883 129.335 42.2116 129.08 42.4258C128.825 42.6354 128.513 42.8063 128.144 42.9385C127.779 43.0706 127.355 43.1367 126.872 43.1367Z" fill="white"/>
<defs>
<linearGradient id="paint0_linear_12_0" x1="158.586" y1="-30.5053" x2="165.299" y2="207.036" gradientUnits="userSpaceOnUse">
<stop stop-color="#9C2CF3"/>
<stop offset="1" stop-color="#3A49F9"/>
</linearGradient>
</defs>
</svg>
