<svg width="315" height="184" viewBox="0 0 315 184" fill="none" xmlns="http://www.w3.org/2000/svg">
<rect width="315" height="184" rx="30" fill="url(#paint0_linear_12_1)"/>
<mask id="mask0_12_1" style="mask-type:alpha" maskUnits="userSpaceOnUse" x="0" y="0" width="315" height="184">
<rect width="315" height="184" rx="30" fill="#ED713C"/>
</mask>
<g mask="url(#mask0_12_1)">
<ellipse opacity="0.1" cx="24.5" cy="213" rx="160.5" ry="113" fill="black"/>
<ellipse opacity="0.08" cx="290.5" cy="-29" rx="160.5" ry="113" fill="black"/>
</g>
<path d="M250.953 149.013V159H249.306V150.968L246.865 151.795V150.435L250.755 149.013H250.953ZM261.584 157.688V159H254.912V157.872L258.152 154.338C258.508 153.937 258.788 153.59 258.993 153.299C259.198 153.007 259.342 152.745 259.424 152.513C259.51 152.276 259.554 152.046 259.554 151.822C259.554 151.508 259.494 151.232 259.376 150.995C259.262 150.754 259.093 150.564 258.87 150.428C258.647 150.286 258.376 150.216 258.057 150.216C257.688 150.216 257.378 150.296 257.127 150.455C256.876 150.615 256.687 150.836 256.56 151.118C256.432 151.396 256.368 151.715 256.368 152.075H254.721C254.721 151.496 254.853 150.968 255.117 150.489C255.382 150.006 255.764 149.623 256.266 149.341C256.767 149.054 257.371 148.91 258.077 148.91C258.743 148.91 259.308 149.022 259.772 149.245C260.237 149.468 260.59 149.785 260.832 150.195C261.078 150.605 261.201 151.091 261.201 151.651C261.201 151.961 261.151 152.269 261.051 152.574C260.951 152.88 260.807 153.185 260.62 153.49C260.438 153.791 260.221 154.094 259.971 154.399C259.72 154.7 259.444 155.006 259.144 155.315L256.99 157.688H261.584ZM267.792 149.047L263.916 159.854H262.624L266.507 149.047H267.792ZM276.01 157.688V159H269.338V157.872L272.578 154.338C272.934 153.937 273.214 153.59 273.419 153.299C273.624 153.007 273.768 152.745 273.85 152.513C273.936 152.276 273.979 152.046 273.979 151.822C273.979 151.508 273.92 151.232 273.802 150.995C273.688 150.754 273.519 150.564 273.296 150.428C273.073 150.286 272.801 150.216 272.482 150.216C272.113 150.216 271.803 150.296 271.553 150.455C271.302 150.615 271.113 150.836 270.985 151.118C270.858 151.396 270.794 151.715 270.794 152.075H269.146C269.146 151.496 269.279 150.968 269.543 150.489C269.807 150.006 270.19 149.623 270.691 149.341C271.193 149.054 271.797 148.91 272.503 148.91C273.168 148.91 273.733 149.022 274.198 149.245C274.663 149.468 275.016 149.785 275.258 150.195C275.504 150.605 275.627 151.091 275.627 151.651C275.627 151.961 275.577 152.269 275.477 152.574C275.376 152.88 275.233 153.185 275.046 153.49C274.864 153.791 274.647 154.094 274.396 154.399C274.146 154.7 273.87 155.006 273.569 155.315L271.416 157.688H276.01ZM284.651 155.452V156.765H277.474L277.419 155.773L281.712 149.047H283.031L281.603 151.494L279.135 155.452H284.651ZM283.407 149.047V159H281.76V149.047H283.407Z" fill="white"/>
<path opacity="0.9" d="M32.4814 154.372L31.1689 154.051L31.709 149.047H37.0752V150.441H33.0762L32.8027 152.882C32.9577 152.791 33.1719 152.702 33.4453 152.615C33.7188 152.524 34.0309 152.479 34.3818 152.479C34.8512 152.479 35.2705 152.556 35.6396 152.711C36.0133 152.861 36.3301 153.082 36.5898 153.374C36.8496 153.661 37.0479 154.012 37.1846 154.427C37.3213 154.837 37.3896 155.299 37.3896 155.814C37.3896 156.275 37.3213 156.705 37.1846 157.106C37.0524 157.507 36.8519 157.861 36.583 158.166C36.3141 158.471 35.9746 158.711 35.5645 158.884C35.1589 159.052 34.6781 159.137 34.1221 159.137C33.7074 159.137 33.3086 159.077 32.9258 158.959C32.5475 158.836 32.208 158.656 31.9072 158.419C31.6064 158.177 31.3649 157.881 31.1826 157.53C31.0003 157.175 30.8955 156.767 30.8682 156.307H32.4814C32.5225 156.63 32.6113 156.906 32.748 157.134C32.8893 157.357 33.0762 157.528 33.3086 157.646C33.541 157.765 33.8099 157.824 34.1152 157.824C34.3932 157.824 34.6325 157.776 34.833 157.681C35.0335 157.58 35.1999 157.439 35.332 157.257C35.4688 157.07 35.569 156.851 35.6328 156.601C35.7012 156.35 35.7354 156.072 35.7354 155.767C35.7354 155.475 35.6966 155.208 35.6191 154.967C35.5462 154.725 35.4346 154.516 35.2842 154.338C35.1383 154.16 34.9538 154.023 34.7305 153.928C34.5072 153.827 34.2497 153.777 33.958 153.777C33.5661 153.777 33.2653 153.834 33.0557 153.948C32.8506 154.062 32.6592 154.203 32.4814 154.372ZM45.8809 157.688V159H39.209V157.872L42.4492 154.338C42.8047 153.937 43.085 153.59 43.29 153.299C43.4951 153.007 43.6387 152.745 43.7207 152.513C43.8073 152.276 43.8506 152.046 43.8506 151.822C43.8506 151.508 43.7913 151.232 43.6729 150.995C43.5589 150.754 43.3903 150.564 43.167 150.428C42.9437 150.286 42.6725 150.216 42.3535 150.216C41.9844 150.216 41.6745 150.296 41.4238 150.455C41.1732 150.615 40.984 150.836 40.8564 151.118C40.7288 151.396 40.665 151.715 40.665 152.075H39.0176C39.0176 151.496 39.1497 150.968 39.4141 150.489C39.6784 150.006 40.0612 149.623 40.5625 149.341C41.0638 149.054 41.6676 148.91 42.374 148.91C43.0394 148.91 43.6045 149.022 44.0693 149.245C44.5342 149.468 44.8874 149.785 45.1289 150.195C45.375 150.605 45.498 151.091 45.498 151.651C45.498 151.961 45.4479 152.269 45.3477 152.574C45.2474 152.88 45.1038 153.185 44.917 153.49C44.7347 153.791 44.5182 154.094 44.2676 154.399C44.0169 154.7 43.7412 155.006 43.4404 155.315L41.2871 157.688H45.8809ZM48.9922 157.701H49.1289C49.7578 157.701 50.2819 157.619 50.7012 157.455C51.125 157.286 51.4622 157.054 51.7129 156.758C51.9635 156.462 52.1436 156.113 52.2529 155.712C52.3623 155.311 52.417 154.876 52.417 154.406V152.69C52.417 152.285 52.3737 151.929 52.2871 151.624C52.2051 151.314 52.0866 151.057 51.9316 150.852C51.7812 150.642 51.6058 150.485 51.4053 150.38C51.2093 150.275 50.9974 150.223 50.7695 150.223C50.5189 150.223 50.2933 150.28 50.0928 150.394C49.8968 150.503 49.7305 150.656 49.5938 150.852C49.4616 151.043 49.359 151.269 49.2861 151.528C49.2178 151.784 49.1836 152.057 49.1836 152.349C49.1836 152.622 49.2155 152.886 49.2793 153.142C49.3477 153.392 49.4479 153.616 49.5801 153.812C49.7122 154.007 49.8786 154.162 50.0791 154.276C50.2796 154.39 50.5143 154.447 50.7832 154.447C51.0384 154.447 51.2731 154.399 51.4873 154.304C51.7015 154.203 51.8883 154.069 52.0479 153.9C52.2074 153.732 52.3327 153.543 52.4238 153.333C52.515 153.123 52.5651 152.909 52.5742 152.69L53.2031 152.882C53.2031 153.228 53.1302 153.57 52.9844 153.907C52.8431 154.24 52.6449 154.545 52.3896 154.823C52.139 155.097 51.8451 155.315 51.5078 155.479C51.1751 155.644 50.8128 155.726 50.4209 155.726C49.9469 155.726 49.5277 155.637 49.1631 155.459C48.8031 155.277 48.5023 155.031 48.2607 154.721C48.0238 154.411 47.846 154.055 47.7275 153.654C47.609 153.253 47.5498 152.832 47.5498 152.39C47.5498 151.911 47.6227 151.462 47.7686 151.043C47.9144 150.624 48.1263 150.255 48.4043 149.936C48.6823 149.612 49.0195 149.361 49.416 149.184C49.8171 149.001 50.2705 148.91 50.7764 148.91C51.3141 148.91 51.7858 149.015 52.1914 149.225C52.597 149.434 52.9388 149.724 53.2168 150.093C53.4948 150.462 53.7044 150.89 53.8457 151.378C53.987 151.866 54.0576 152.39 54.0576 152.95V153.531C54.0576 154.119 54.0052 154.687 53.9004 155.233C53.7956 155.776 53.6247 156.279 53.3877 156.744C53.1553 157.204 52.8477 157.61 52.4648 157.961C52.0866 158.307 51.6217 158.578 51.0703 158.774C50.5234 158.966 49.8809 159.062 49.1426 159.062H48.9922V157.701ZM62.9795 155.452V156.765H55.8018L55.7471 155.773L60.04 149.047H61.3594L59.9307 151.494L57.4629 155.452H62.9795ZM61.7354 149.047V159H60.0879V149.047H61.7354ZM75.2383 157.688V159H68.5664V157.872L71.8066 154.338C72.1621 153.937 72.4424 153.59 72.6475 153.299C72.8525 153.007 72.9961 152.745 73.0781 152.513C73.1647 152.276 73.208 152.046 73.208 151.822C73.208 151.508 73.1488 151.232 73.0303 150.995C72.9163 150.754 72.7477 150.564 72.5244 150.428C72.3011 150.286 72.0299 150.216 71.7109 150.216C71.3418 150.216 71.0319 150.296 70.7812 150.455C70.5306 150.615 70.3415 150.836 70.2139 151.118C70.0863 151.396 70.0225 151.715 70.0225 152.075H68.375C68.375 151.496 68.5072 150.968 68.7715 150.489C69.0358 150.006 69.4186 149.623 69.9199 149.341C70.4212 149.054 71.0251 148.91 71.7314 148.91C72.3968 148.91 72.9619 149.022 73.4268 149.245C73.8916 149.468 74.2448 149.785 74.4863 150.195C74.7324 150.605 74.8555 151.091 74.8555 151.651C74.8555 151.961 74.8053 152.269 74.7051 152.574C74.6048 152.88 74.4613 153.185 74.2744 153.49C74.0921 153.791 73.8757 154.094 73.625 154.399C73.3743 154.7 73.0986 155.006 72.7979 155.315L70.6445 157.688H75.2383ZM83.8799 155.452V156.765H76.7021L76.6475 155.773L80.9404 149.047H82.2598L80.8311 151.494L78.3633 155.452H83.8799ZM82.6357 149.047V159H80.9883V149.047H82.6357ZM87.415 153.278H88.3994C88.7822 153.278 89.099 153.212 89.3496 153.08C89.6048 152.948 89.7939 152.766 89.917 152.533C90.04 152.301 90.1016 152.034 90.1016 151.733C90.1016 151.419 90.0446 151.15 89.9307 150.927C89.8213 150.699 89.6527 150.523 89.4248 150.4C89.2015 150.277 88.9167 150.216 88.5703 150.216C88.2786 150.216 88.0143 150.275 87.7773 150.394C87.5449 150.507 87.3604 150.672 87.2236 150.886C87.0869 151.095 87.0186 151.346 87.0186 151.638H85.3643C85.3643 151.109 85.5033 150.64 85.7812 150.229C86.0592 149.819 86.4375 149.498 86.916 149.266C87.3991 149.029 87.9414 148.91 88.543 148.91C89.1855 148.91 89.7461 149.017 90.2246 149.231C90.7077 149.441 91.0837 149.756 91.3525 150.175C91.6214 150.594 91.7559 151.114 91.7559 151.733C91.7559 152.016 91.6898 152.303 91.5576 152.595C91.4255 152.886 91.2295 153.153 90.9697 153.395C90.71 153.632 90.3864 153.825 89.999 153.976C89.6117 154.121 89.1628 154.194 88.6523 154.194H87.415V153.278ZM87.415 154.563V153.661H88.6523C89.2357 153.661 89.7324 153.729 90.1426 153.866C90.5573 154.003 90.8945 154.192 91.1543 154.434C91.4141 154.671 91.6032 154.942 91.7217 155.247C91.8447 155.552 91.9062 155.876 91.9062 156.218C91.9062 156.683 91.8219 157.097 91.6533 157.462C91.4893 157.822 91.2546 158.127 90.9492 158.378C90.6439 158.629 90.2861 158.818 89.876 158.945C89.4704 159.073 89.0283 159.137 88.5498 159.137C88.1214 159.137 87.7113 159.077 87.3193 158.959C86.9274 158.84 86.5765 158.665 86.2666 158.433C85.9567 158.196 85.7106 157.902 85.5283 157.551C85.3506 157.195 85.2617 156.785 85.2617 156.32H86.9092C86.9092 156.617 86.9775 156.879 87.1143 157.106C87.2555 157.33 87.4515 157.505 87.7021 157.633C87.9574 157.76 88.249 157.824 88.5771 157.824C88.9235 157.824 89.222 157.763 89.4727 157.64C89.7233 157.517 89.9147 157.334 90.0469 157.093C90.1836 156.851 90.252 156.56 90.252 156.218C90.252 155.83 90.1768 155.516 90.0264 155.274C89.876 155.033 89.6618 154.855 89.3838 154.741C89.1058 154.623 88.7777 154.563 88.3994 154.563H87.415ZM98.9141 148.985H99.1191V150.332H99.0029C98.415 150.332 97.9069 150.423 97.4785 150.605C97.0547 150.788 96.7061 151.038 96.4326 151.357C96.1592 151.676 95.9541 152.05 95.8174 152.479C95.6852 152.902 95.6191 153.354 95.6191 153.832V155.397C95.6191 155.794 95.6624 156.145 95.749 156.45C95.8356 156.751 95.9564 157.004 96.1113 157.209C96.2708 157.41 96.4531 157.562 96.6582 157.667C96.8633 157.772 97.0843 157.824 97.3213 157.824C97.5674 157.824 97.7907 157.774 97.9912 157.674C98.1917 157.569 98.3626 157.425 98.5039 157.243C98.6452 157.061 98.7523 156.844 98.8252 156.594C98.8981 156.343 98.9346 156.07 98.9346 155.773C98.9346 155.491 98.8981 155.227 98.8252 154.98C98.7568 154.73 98.6543 154.511 98.5176 154.324C98.3809 154.133 98.21 153.985 98.0049 153.88C97.8044 153.771 97.5719 153.716 97.3076 153.716C96.9795 153.716 96.681 153.793 96.4121 153.948C96.1478 154.103 95.9336 154.306 95.7695 154.557C95.61 154.803 95.5234 155.065 95.5098 155.343L94.8809 155.138C94.9173 154.714 95.0107 154.333 95.1611 153.996C95.3161 153.659 95.5189 153.372 95.7695 153.135C96.0202 152.898 96.3096 152.718 96.6377 152.595C96.9704 152.467 97.335 152.403 97.7314 152.403C98.2145 152.403 98.6338 152.494 98.9893 152.677C99.3447 152.859 99.6387 153.107 99.8711 153.422C100.108 153.732 100.284 154.087 100.397 154.488C100.516 154.885 100.575 155.299 100.575 155.732C100.575 156.211 100.502 156.658 100.356 157.072C100.211 157.482 99.9964 157.842 99.7139 158.152C99.4359 158.462 99.0964 158.704 98.6953 158.877C98.2988 159.05 97.8477 159.137 97.3418 159.137C96.8086 159.137 96.3324 159.034 95.9131 158.829C95.4984 158.624 95.1452 158.341 94.8535 157.981C94.5664 157.621 94.3477 157.207 94.1973 156.737C94.0469 156.268 93.9717 155.771 93.9717 155.247V154.563C93.9717 153.807 94.0674 153.094 94.2588 152.424C94.4502 151.749 94.7441 151.155 95.1406 150.64C95.5417 150.125 96.0544 149.721 96.6787 149.43C97.3031 149.133 98.0482 148.985 98.9141 148.985ZM113.237 155.452V156.765H106.06L106.005 155.773L110.298 149.047H111.617L110.188 151.494L107.721 155.452H113.237ZM111.993 149.047V159H110.346V149.047H111.993ZM121.448 149.047V149.949L117.47 159H115.733L119.705 150.359H114.551V149.047H121.448ZM129.803 156.286C129.803 156.906 129.659 157.428 129.372 157.852C129.085 158.275 128.693 158.597 128.196 158.815C127.704 159.03 127.148 159.137 126.528 159.137C125.909 159.137 125.35 159.03 124.854 158.815C124.357 158.597 123.965 158.275 123.678 157.852C123.391 157.428 123.247 156.906 123.247 156.286C123.247 155.876 123.327 155.505 123.486 155.172C123.646 154.835 123.871 154.545 124.163 154.304C124.459 154.058 124.806 153.868 125.202 153.736C125.603 153.604 126.041 153.538 126.515 153.538C127.144 153.538 127.706 153.654 128.203 153.887C128.7 154.119 129.09 154.44 129.372 154.851C129.659 155.261 129.803 155.739 129.803 156.286ZM128.148 156.204C128.148 155.871 128.08 155.58 127.943 155.329C127.807 155.078 127.615 154.885 127.369 154.748C127.123 154.611 126.838 154.543 126.515 154.543C126.187 154.543 125.902 154.611 125.66 154.748C125.419 154.885 125.229 155.078 125.093 155.329C124.961 155.58 124.895 155.871 124.895 156.204C124.895 156.541 124.961 156.833 125.093 157.079C125.225 157.321 125.414 157.505 125.66 157.633C125.906 157.76 126.196 157.824 126.528 157.824C126.861 157.824 127.148 157.76 127.39 157.633C127.631 157.505 127.818 157.321 127.95 157.079C128.082 156.833 128.148 156.541 128.148 156.204ZM129.577 151.665C129.577 152.162 129.445 152.604 129.181 152.991C128.921 153.379 128.561 153.684 128.101 153.907C127.64 154.126 127.116 154.235 126.528 154.235C125.936 154.235 125.407 154.126 124.942 153.907C124.482 153.684 124.12 153.379 123.855 152.991C123.596 152.604 123.466 152.162 123.466 151.665C123.466 151.073 123.596 150.574 123.855 150.168C124.12 149.758 124.482 149.446 124.942 149.231C125.403 149.017 125.929 148.91 126.521 148.91C127.114 148.91 127.64 149.017 128.101 149.231C128.561 149.446 128.921 149.758 129.181 150.168C129.445 150.574 129.577 151.073 129.577 151.665ZM127.93 151.72C127.93 151.424 127.87 151.164 127.752 150.94C127.638 150.713 127.476 150.535 127.267 150.407C127.057 150.28 126.809 150.216 126.521 150.216C126.234 150.216 125.986 150.277 125.776 150.4C125.567 150.523 125.405 150.697 125.291 150.92C125.177 151.143 125.12 151.41 125.12 151.72C125.12 152.025 125.177 152.292 125.291 152.52C125.405 152.743 125.567 152.918 125.776 153.046C125.991 153.174 126.241 153.237 126.528 153.237C126.815 153.237 127.064 153.174 127.273 153.046C127.483 152.918 127.645 152.743 127.759 152.52C127.873 152.292 127.93 152.025 127.93 151.72ZM138.239 153.189V154.816C138.239 155.596 138.162 156.261 138.007 156.812C137.856 157.359 137.638 157.804 137.351 158.146C137.063 158.487 136.719 158.738 136.318 158.897C135.922 159.057 135.478 159.137 134.985 159.137C134.593 159.137 134.229 159.087 133.892 158.986C133.559 158.886 133.258 158.729 132.989 158.515C132.72 158.3 132.49 158.025 132.299 157.688C132.112 157.346 131.966 156.938 131.861 156.464C131.761 155.99 131.711 155.441 131.711 154.816V153.189C131.711 152.406 131.788 151.745 131.943 151.207C132.098 150.665 132.319 150.225 132.606 149.888C132.894 149.546 133.235 149.298 133.632 149.143C134.033 148.988 134.479 148.91 134.972 148.91C135.368 148.91 135.733 148.96 136.065 149.061C136.403 149.156 136.703 149.309 136.968 149.519C137.237 149.728 137.465 150.002 137.651 150.339C137.843 150.672 137.989 151.075 138.089 151.549C138.189 152.018 138.239 152.565 138.239 153.189ZM136.592 155.049V152.943C136.592 152.547 136.569 152.198 136.523 151.897C136.478 151.592 136.41 151.335 136.318 151.125C136.232 150.911 136.122 150.738 135.99 150.605C135.858 150.469 135.708 150.371 135.539 150.312C135.37 150.248 135.181 150.216 134.972 150.216C134.716 150.216 134.489 150.266 134.288 150.366C134.088 150.462 133.919 150.617 133.782 150.831C133.646 151.045 133.541 151.328 133.468 151.679C133.399 152.025 133.365 152.447 133.365 152.943V155.049C133.365 155.45 133.388 155.803 133.434 156.108C133.479 156.414 133.548 156.676 133.639 156.895C133.73 157.109 133.839 157.286 133.967 157.428C134.099 157.564 134.249 157.665 134.418 157.729C134.591 157.792 134.78 157.824 134.985 157.824C135.245 157.824 135.475 157.774 135.676 157.674C135.876 157.574 136.045 157.414 136.182 157.195C136.318 156.972 136.421 156.683 136.489 156.327C136.558 155.972 136.592 155.546 136.592 155.049ZM150.867 157.688V159H144.195V157.872L147.436 154.338C147.791 153.937 148.071 153.59 148.276 153.299C148.481 153.007 148.625 152.745 148.707 152.513C148.794 152.276 148.837 152.046 148.837 151.822C148.837 151.508 148.778 151.232 148.659 150.995C148.545 150.754 148.377 150.564 148.153 150.428C147.93 150.286 147.659 150.216 147.34 150.216C146.971 150.216 146.661 150.296 146.41 150.455C146.16 150.615 145.97 150.836 145.843 151.118C145.715 151.396 145.651 151.715 145.651 152.075H144.004C144.004 151.496 144.136 150.968 144.4 150.489C144.665 150.006 145.048 149.623 145.549 149.341C146.05 149.054 146.654 148.91 147.36 148.91C148.026 148.91 148.591 149.022 149.056 149.245C149.521 149.468 149.874 149.785 150.115 150.195C150.361 150.605 150.484 151.091 150.484 151.651C150.484 151.961 150.434 152.269 150.334 152.574C150.234 152.88 150.09 153.185 149.903 153.49C149.721 153.791 149.505 154.094 149.254 154.399C149.003 154.7 148.728 155.006 148.427 155.315L146.273 157.688H150.867ZM159.509 155.452V156.765H152.331L152.276 155.773L156.569 149.047H157.889L156.46 151.494L153.992 155.452H159.509ZM158.265 149.047V159H156.617V149.047H158.265ZM166.086 148.985H166.291V150.332H166.175C165.587 150.332 165.079 150.423 164.65 150.605C164.227 150.788 163.878 151.038 163.604 151.357C163.331 151.676 163.126 152.05 162.989 152.479C162.857 152.902 162.791 153.354 162.791 153.832V155.397C162.791 155.794 162.834 156.145 162.921 156.45C163.007 156.751 163.128 157.004 163.283 157.209C163.443 157.41 163.625 157.562 163.83 157.667C164.035 157.772 164.256 157.824 164.493 157.824C164.739 157.824 164.963 157.774 165.163 157.674C165.364 157.569 165.535 157.425 165.676 157.243C165.817 157.061 165.924 156.844 165.997 156.594C166.07 156.343 166.106 156.07 166.106 155.773C166.106 155.491 166.07 155.227 165.997 154.98C165.929 154.73 165.826 154.511 165.689 154.324C165.553 154.133 165.382 153.985 165.177 153.88C164.976 153.771 164.744 153.716 164.479 153.716C164.151 153.716 163.853 153.793 163.584 153.948C163.32 154.103 163.105 154.306 162.941 154.557C162.782 154.803 162.695 155.065 162.682 155.343L162.053 155.138C162.089 154.714 162.183 154.333 162.333 153.996C162.488 153.659 162.691 153.372 162.941 153.135C163.192 152.898 163.481 152.718 163.81 152.595C164.142 152.467 164.507 152.403 164.903 152.403C165.386 152.403 165.806 152.494 166.161 152.677C166.517 152.859 166.811 153.107 167.043 153.422C167.28 153.732 167.455 154.087 167.569 154.488C167.688 154.885 167.747 155.299 167.747 155.732C167.747 156.211 167.674 156.658 167.528 157.072C167.382 157.482 167.168 157.842 166.886 158.152C166.608 158.462 166.268 158.704 165.867 158.877C165.471 159.05 165.02 159.137 164.514 159.137C163.98 159.137 163.504 159.034 163.085 158.829C162.67 158.624 162.317 158.341 162.025 157.981C161.738 157.621 161.52 157.207 161.369 156.737C161.219 156.268 161.144 155.771 161.144 155.247V154.563C161.144 153.807 161.239 153.094 161.431 152.424C161.622 151.749 161.916 151.155 162.312 150.64C162.714 150.125 163.226 149.721 163.851 149.43C164.475 149.133 165.22 148.985 166.086 148.985ZM176.074 156.286C176.074 156.906 175.931 157.428 175.644 157.852C175.356 158.275 174.965 158.597 174.468 158.815C173.976 159.03 173.42 159.137 172.8 159.137C172.18 159.137 171.622 159.03 171.125 158.815C170.628 158.597 170.236 158.275 169.949 157.852C169.662 157.428 169.519 156.906 169.519 156.286C169.519 155.876 169.598 155.505 169.758 155.172C169.917 154.835 170.143 154.545 170.435 154.304C170.731 154.058 171.077 153.868 171.474 153.736C171.875 153.604 172.312 153.538 172.786 153.538C173.415 153.538 173.978 153.654 174.475 153.887C174.971 154.119 175.361 154.44 175.644 154.851C175.931 155.261 176.074 155.739 176.074 156.286ZM174.42 156.204C174.42 155.871 174.352 155.58 174.215 155.329C174.078 155.078 173.887 154.885 173.641 154.748C173.395 154.611 173.11 154.543 172.786 154.543C172.458 154.543 172.173 154.611 171.932 154.748C171.69 154.885 171.501 155.078 171.364 155.329C171.232 155.58 171.166 155.871 171.166 156.204C171.166 156.541 171.232 156.833 171.364 157.079C171.496 157.321 171.686 157.505 171.932 157.633C172.178 157.76 172.467 157.824 172.8 157.824C173.132 157.824 173.42 157.76 173.661 157.633C173.903 157.505 174.09 157.321 174.222 157.079C174.354 156.833 174.42 156.541 174.42 156.204ZM175.849 151.665C175.849 152.162 175.716 152.604 175.452 152.991C175.192 153.379 174.832 153.684 174.372 153.907C173.912 154.126 173.388 154.235 172.8 154.235C172.207 154.235 171.679 154.126 171.214 153.907C170.754 153.684 170.391 153.379 170.127 152.991C169.867 152.604 169.737 152.162 169.737 151.665C169.737 151.073 169.867 150.574 170.127 150.168C170.391 149.758 170.754 149.446 171.214 149.231C171.674 149.017 172.201 148.91 172.793 148.91C173.385 148.91 173.912 149.017 174.372 149.231C174.832 149.446 175.192 149.758 175.452 150.168C175.716 150.574 175.849 151.073 175.849 151.665ZM174.201 151.72C174.201 151.424 174.142 151.164 174.023 150.94C173.91 150.713 173.748 150.535 173.538 150.407C173.328 150.28 173.08 150.216 172.793 150.216C172.506 150.216 172.257 150.277 172.048 150.4C171.838 150.523 171.676 150.697 171.562 150.92C171.449 151.143 171.392 151.41 171.392 151.72C171.392 152.025 171.449 152.292 171.562 152.52C171.676 152.743 171.838 152.918 172.048 153.046C172.262 153.174 172.513 153.237 172.8 153.237C173.087 153.237 173.335 153.174 173.545 153.046C173.755 152.918 173.916 152.743 174.03 152.52C174.144 152.292 174.201 152.025 174.201 151.72Z" fill="white"/>
<path d="M256.416 27.9742H268.584V49.8367H256.416V27.9742Z" fill="#FF5F00"/>
<path d="M248.189 60.8409V58.5234C248.189 57.6348 247.648 57.0556 246.721 57.0556C246.258 57.0556 245.756 57.2101 245.408 57.7123C245.138 57.2873 244.751 57.0556 244.172 57.0556C243.786 57.0556 243.4 57.1714 243.09 57.5963V57.1328H242.279V60.8409H243.09V58.7937C243.09 58.1372 243.438 57.828 243.979 57.828C244.52 57.828 244.79 58.1757 244.79 58.7937V60.8409H245.601V58.7937C245.601 58.1372 245.987 57.828 246.49 57.828C247.03 57.828 247.301 58.1757 247.301 58.7937V60.8409H248.189ZM260.202 57.1328H258.889V56.0127H258.078V57.1328H257.344V57.8666H258.077V59.5663C258.077 60.4162 258.425 60.9182 259.352 60.9182C259.7 60.9182 260.086 60.8024 260.357 60.6479L260.125 59.9525C259.893 60.107 259.623 60.1457 259.429 60.1457C259.043 60.1457 258.889 59.914 258.889 59.5276V57.8666H260.202V57.1328ZM267.077 57.0554C266.614 57.0554 266.305 57.2873 266.112 57.5963V57.1328H265.301V60.8409H266.112V58.7551C266.112 58.1372 266.382 57.7895 266.884 57.7895C267.039 57.7895 267.232 57.8282 267.386 57.8668L267.618 57.0943C267.464 57.0556 267.232 57.0556 267.077 57.0556V57.0554ZM256.687 57.4418C256.301 57.1714 255.76 57.0556 255.18 57.0556C254.254 57.0556 253.636 57.5191 253.636 58.253C253.636 58.8711 254.099 59.2186 254.91 59.3346L255.296 59.3733C255.721 59.4503 255.953 59.5663 255.953 59.7595C255.953 60.0298 255.644 60.223 255.103 60.223C254.562 60.223 254.138 60.0298 253.867 59.8367L253.481 60.4547C253.906 60.7637 254.485 60.9182 255.064 60.9182C256.146 60.9182 256.764 60.4162 256.764 59.7208C256.764 59.0641 256.262 58.7164 255.489 58.6007L255.103 58.562C254.756 58.5232 254.485 58.4462 254.485 58.2144C254.485 57.944 254.756 57.7895 255.18 57.7895C255.644 57.7895 256.108 57.9825 256.339 58.0985L256.687 57.4418ZM278.241 57.0556C277.777 57.0556 277.468 57.2873 277.275 57.5963V57.1328H276.464V60.8409H277.275V58.7551C277.275 58.1372 277.545 57.7895 278.047 57.7895C278.202 57.7895 278.395 57.8282 278.549 57.8668L278.781 57.0943C278.627 57.0556 278.395 57.0556 278.241 57.0556ZM267.889 58.9869C267.889 60.107 268.661 60.9182 269.859 60.9182C270.399 60.9182 270.785 60.8024 271.172 60.4934L270.785 59.8367C270.477 60.0685 270.168 60.1843 269.82 60.1843C269.163 60.1843 268.7 59.7208 268.7 58.9869C268.7 58.2917 269.163 57.828 269.82 57.7895C270.168 57.7895 270.477 57.9053 270.785 58.1372L271.172 57.4805C270.785 57.1714 270.399 57.0556 269.859 57.0556C268.661 57.0556 267.889 57.8668 267.889 58.9869ZM275.382 58.9869V57.1328H274.571V57.5963C274.301 57.2488 273.914 57.0556 273.412 57.0556C272.369 57.0556 271.558 57.8668 271.558 58.9869C271.558 60.107 272.369 60.9182 273.412 60.9182C273.953 60.9182 274.339 60.7251 274.571 60.3774V60.8409H275.382V58.9869ZM272.408 58.9869C272.408 58.3302 272.833 57.7895 273.528 57.7895C274.185 57.7895 274.648 58.2917 274.648 58.9869C274.648 59.6435 274.185 60.1843 273.528 60.1843C272.833 60.1455 272.408 59.6435 272.408 58.9869ZM262.713 57.0556C261.631 57.0556 260.858 57.828 260.858 58.9869C260.858 60.1457 261.631 60.9182 262.751 60.9182C263.292 60.9182 263.833 60.7637 264.258 60.4162L263.871 59.8367C263.562 60.0685 263.176 60.223 262.79 60.223C262.288 60.223 261.786 59.9912 261.67 59.3344H264.412V59.0256C264.451 57.828 263.756 57.0556 262.713 57.0556H262.713ZM262.713 57.7508C263.215 57.7508 263.563 58.06 263.64 58.6394H261.708C261.786 58.1372 262.133 57.7508 262.713 57.7508ZM282.837 58.9869V55.665H282.026V57.5963C281.755 57.2488 281.369 57.0556 280.867 57.0556C279.824 57.0556 279.013 57.8668 279.013 58.9869C279.013 60.107 279.824 60.9182 280.867 60.9182C281.408 60.9182 281.794 60.7251 282.026 60.3774V60.8409H282.837V58.9869ZM279.863 58.9869C279.863 58.3302 280.288 57.7895 280.983 57.7895C281.64 57.7895 282.103 58.2917 282.103 58.9869C282.103 59.6435 281.64 60.1843 280.983 60.1843C280.288 60.1455 279.863 59.6435 279.863 58.9869ZM252.747 58.9869V57.1328H251.936V57.5963C251.665 57.2488 251.279 57.0556 250.777 57.0556C249.734 57.0556 248.923 57.8668 248.923 58.9869C248.923 60.107 249.734 60.9182 250.777 60.9182C251.318 60.9182 251.704 60.7251 251.936 60.3774V60.8409H252.747V58.9869ZM249.734 58.9869C249.734 58.3302 250.159 57.7895 250.854 57.7895C251.511 57.7895 251.975 58.2917 251.975 58.9869C251.975 59.6435 251.511 60.1843 250.854 60.1843C250.159 60.1455 249.734 59.6435 249.734 58.9869Z" fill="white"/>
<path d="M257.189 38.9055C257.189 34.4635 259.275 30.5236 262.48 27.9742C260.124 26.1201 257.15 25 253.906 25C246.219 25 240 31.2188 240 38.9055C240 46.5921 246.219 52.811 253.906 52.811C257.15 52.811 260.124 51.6909 262.48 49.8367C259.275 47.326 257.189 43.3475 257.189 38.9055Z" fill="#EB001B"/>
<path d="M285 38.9055C285 46.5921 278.781 52.811 271.094 52.811C267.849 52.811 264.875 51.6909 262.519 49.8367C265.764 47.2874 267.811 43.3475 267.811 38.9055C267.811 34.4635 265.725 30.5236 262.519 27.9742C264.875 26.1201 267.849 25 271.094 25C278.781 25 285 31.2575 285 38.9055H285Z" fill="#F79E1B"/>
<path d="M39.4199 54.9082V58.9961H37.3145V54.9082H39.4199ZM39.1602 77.2344V80.8984H37.0684V77.2344H39.1602ZM41.2246 72.8184C41.2246 72.2897 41.1152 71.8294 40.8965 71.4375C40.6868 71.0365 40.3405 70.6764 39.8574 70.3574C39.3743 70.0293 38.7272 69.724 37.916 69.4414C36.7493 69.0312 35.7285 68.571 34.8535 68.0605C33.9876 67.541 33.3132 66.903 32.8301 66.1465C32.3561 65.3809 32.1191 64.4284 32.1191 63.2891C32.1191 62.168 32.3743 61.1973 32.8848 60.377C33.4043 59.5566 34.1243 58.9232 35.0449 58.4766C35.9655 58.0299 37.041 57.8066 38.2715 57.8066C39.2194 57.8066 40.0716 57.9479 40.8281 58.2305C41.5938 58.513 42.2454 58.9277 42.7832 59.4746C43.321 60.0215 43.7311 60.696 44.0137 61.498C44.3053 62.291 44.4512 63.2025 44.4512 64.2324H41.1699C41.1699 63.6491 41.1016 63.1296 40.9648 62.6738C40.8372 62.209 40.6458 61.8171 40.3906 61.498C40.1354 61.1699 39.8255 60.9193 39.4609 60.7461C39.1055 60.5729 38.6999 60.4863 38.2441 60.4863C37.597 60.4863 37.0638 60.6094 36.6445 60.8555C36.2253 61.0924 35.9154 61.4206 35.7148 61.8398C35.5234 62.2591 35.4277 62.7376 35.4277 63.2754C35.4277 63.7949 35.528 64.2507 35.7285 64.6426C35.929 65.0345 36.2708 65.39 36.7539 65.709C37.2461 66.0189 37.9206 66.3333 38.7773 66.6523C39.9531 67.0716 40.9694 67.541 41.8262 68.0605C42.6921 68.571 43.3574 69.2044 43.8223 69.9609C44.2962 70.7083 44.5332 71.6517 44.5332 72.791C44.5332 73.9668 44.2598 74.9648 43.7129 75.7852C43.1751 76.6055 42.4186 77.2298 41.4434 77.6582C40.4772 78.0775 39.3516 78.2871 38.0664 78.2871C37.2552 78.2871 36.4486 78.1823 35.6465 77.9727C34.8535 77.7539 34.1335 77.3984 33.4863 76.9062C32.8392 76.4141 32.3242 75.7624 31.9414 74.9512C31.5586 74.1309 31.3672 73.1283 31.3672 71.9434H34.6758C34.6758 72.6543 34.7715 73.2467 34.9629 73.7207C35.1543 74.1947 35.4141 74.5684 35.7422 74.8418C36.0703 75.1152 36.4349 75.3112 36.8359 75.4297C37.2461 75.5482 37.6562 75.6074 38.0664 75.6074C38.75 75.6074 39.3242 75.4935 39.7891 75.2656C40.263 75.0286 40.6185 74.7005 40.8555 74.2812C41.1016 73.8529 41.2246 73.3652 41.2246 72.8184ZM61.1309 70.9043V73.5293H46.7754L46.666 71.5469L55.252 58.0938H57.8906L55.0332 62.9883L50.0977 70.9043H61.1309ZM58.6426 58.0938V78H55.3477V58.0938H58.6426ZM66.6133 74.8281L66.5996 77.1797C66.5996 78.1094 66.3672 79.0664 65.9023 80.0508C65.4375 81.0352 64.8223 81.8464 64.0566 82.4844L62.293 81.459C62.5482 81.0488 62.7806 80.6341 62.9902 80.2148C63.1999 79.7956 63.3685 79.349 63.4961 78.875C63.6237 78.401 63.6875 77.877 63.6875 77.3027V74.8281H66.6133ZM73.0527 68.7441L70.4277 68.1016L71.5078 58.0938H82.2402V60.8828H74.2422L73.6953 65.7637C74.0052 65.5814 74.4336 65.4036 74.9805 65.2305C75.5273 65.0482 76.1517 64.957 76.8535 64.957C77.7923 64.957 78.6309 65.112 79.3691 65.4219C80.1165 65.7227 80.75 66.1647 81.2695 66.748C81.7891 67.3223 82.1855 68.0241 82.459 68.8535C82.7324 69.6738 82.8691 70.599 82.8691 71.6289C82.8691 72.5495 82.7324 73.4108 82.459 74.2129C82.1947 75.015 81.7936 75.7214 81.2559 76.332C80.7181 76.9427 80.0391 77.4212 79.2188 77.7676C78.4076 78.1048 77.446 78.2734 76.334 78.2734C75.5046 78.2734 74.707 78.1549 73.9414 77.918C73.1849 77.6719 72.5059 77.3118 71.9043 76.8379C71.3027 76.3548 70.8197 75.7624 70.4551 75.0605C70.0905 74.3496 69.8809 73.5339 69.8262 72.6133H73.0527C73.1348 73.2604 73.3125 73.8118 73.5859 74.2676C73.8685 74.7142 74.2422 75.056 74.707 75.293C75.1719 75.5299 75.7096 75.6484 76.3203 75.6484C76.8763 75.6484 77.3548 75.5527 77.7559 75.3613C78.1569 75.1608 78.4896 74.8783 78.7539 74.5137C79.0273 74.14 79.2279 73.7025 79.3555 73.2012C79.4922 72.6999 79.5605 72.1439 79.5605 71.5332C79.5605 70.9499 79.4831 70.4167 79.3281 69.9336C79.1823 69.4505 78.959 69.0312 78.6582 68.6758C78.3665 68.3203 77.9974 68.0469 77.5508 67.8555C77.1042 67.6549 76.5892 67.5547 76.0059 67.5547C75.222 67.5547 74.6204 67.6686 74.2012 67.8965C73.791 68.1243 73.4082 68.4069 73.0527 68.7441ZM98.7285 58.0938V59.8984L90.7715 78H87.2988L95.2422 60.7188H84.9336V58.0938H98.7285ZM114.396 66.3789V69.6328C114.396 71.1914 114.242 72.5221 113.932 73.625C113.631 74.7188 113.193 75.6074 112.619 76.291C112.045 76.9746 111.357 77.4759 110.555 77.7949C109.762 78.1139 108.873 78.2734 107.889 78.2734C107.105 78.2734 106.376 78.1732 105.701 77.9727C105.036 77.7721 104.434 77.4577 103.896 77.0293C103.359 76.6009 102.898 76.0495 102.516 75.375C102.142 74.6914 101.85 73.8757 101.641 72.9277C101.44 71.9798 101.34 70.8815 101.34 69.6328V66.3789C101.34 64.8112 101.495 63.4896 101.805 62.4141C102.115 61.3294 102.557 60.4499 103.131 59.7754C103.705 59.0918 104.389 58.5951 105.182 58.2852C105.984 57.9753 106.877 57.8203 107.861 57.8203C108.654 57.8203 109.383 57.9206 110.049 58.1211C110.723 58.3125 111.325 58.6178 111.854 59.0371C112.391 59.4564 112.847 60.0033 113.221 60.6777C113.604 61.3431 113.895 62.1497 114.096 63.0977C114.296 64.0365 114.396 65.1302 114.396 66.3789ZM111.102 70.0977V65.8867C111.102 65.0938 111.056 64.3965 110.965 63.7949C110.874 63.1842 110.737 62.6693 110.555 62.25C110.382 61.8216 110.163 61.4753 109.898 61.2109C109.634 60.9375 109.333 60.7415 108.996 60.623C108.659 60.4954 108.281 60.4316 107.861 60.4316C107.351 60.4316 106.895 60.5319 106.494 60.7324C106.093 60.9238 105.756 61.2337 105.482 61.6621C105.209 62.0905 104.999 62.6556 104.854 63.3574C104.717 64.0501 104.648 64.8932 104.648 65.8867V70.0977C104.648 70.8997 104.694 71.6061 104.785 72.2168C104.876 72.8275 105.013 73.3516 105.195 73.7891C105.378 74.2174 105.596 74.5729 105.852 74.8555C106.116 75.1289 106.417 75.3294 106.754 75.457C107.1 75.5846 107.479 75.6484 107.889 75.6484C108.408 75.6484 108.868 75.5482 109.27 75.3477C109.671 75.1471 110.008 74.8281 110.281 74.3906C110.555 73.944 110.76 73.3652 110.896 72.6543C111.033 71.9434 111.102 71.0911 111.102 70.0977ZM120.617 74.8281L120.604 77.1797C120.604 78.1094 120.371 79.0664 119.906 80.0508C119.441 81.0352 118.826 81.8464 118.061 82.4844L116.297 81.459C116.552 81.0488 116.785 80.6341 116.994 80.2148C117.204 79.7956 117.372 79.349 117.5 78.875C117.628 78.401 117.691 77.877 117.691 77.3027V74.8281H120.617ZM136.613 72.5723C136.613 73.8118 136.326 74.8555 135.752 75.7031C135.178 76.5508 134.394 77.1934 133.4 77.6309C132.416 78.0592 131.304 78.2734 130.064 78.2734C128.825 78.2734 127.708 78.0592 126.715 77.6309C125.721 77.1934 124.938 76.5508 124.363 75.7031C123.789 74.8555 123.502 73.8118 123.502 72.5723C123.502 71.752 123.661 71.0091 123.98 70.3438C124.299 69.6693 124.751 69.0905 125.334 68.6074C125.926 68.1152 126.619 67.737 127.412 67.4727C128.214 67.2083 129.089 67.0762 130.037 67.0762C131.295 67.0762 132.421 67.3086 133.414 67.7734C134.408 68.2383 135.187 68.8809 135.752 69.7012C136.326 70.5215 136.613 71.4785 136.613 72.5723ZM133.305 72.4082C133.305 71.7428 133.168 71.1595 132.895 70.6582C132.621 70.1569 132.238 69.7695 131.746 69.4961C131.254 69.2227 130.684 69.0859 130.037 69.0859C129.381 69.0859 128.811 69.2227 128.328 69.4961C127.845 69.7695 127.467 70.1569 127.193 70.6582C126.929 71.1595 126.797 71.7428 126.797 72.4082C126.797 73.0827 126.929 73.666 127.193 74.1582C127.458 74.6413 127.836 75.0104 128.328 75.2656C128.82 75.5208 129.399 75.6484 130.064 75.6484C130.73 75.6484 131.304 75.5208 131.787 75.2656C132.27 75.0104 132.644 74.6413 132.908 74.1582C133.173 73.666 133.305 73.0827 133.305 72.4082ZM136.162 63.3301C136.162 64.3236 135.898 65.2077 135.369 65.9824C134.85 66.7572 134.13 67.3678 133.209 67.8145C132.288 68.252 131.24 68.4707 130.064 68.4707C128.88 68.4707 127.822 68.252 126.893 67.8145C125.972 67.3678 125.247 66.7572 124.719 65.9824C124.199 65.2077 123.939 64.3236 123.939 63.3301C123.939 62.1452 124.199 61.1471 124.719 60.3359C125.247 59.5156 125.972 58.8913 126.893 58.4629C127.813 58.0345 128.866 57.8203 130.051 57.8203C131.236 57.8203 132.288 58.0345 133.209 58.4629C134.13 58.8913 134.85 59.5156 135.369 60.3359C135.898 61.1471 136.162 62.1452 136.162 63.3301ZM132.867 63.4395C132.867 62.847 132.749 62.3275 132.512 61.8809C132.284 61.4251 131.96 61.0697 131.541 60.8145C131.122 60.5592 130.625 60.4316 130.051 60.4316C129.477 60.4316 128.98 60.5547 128.561 60.8008C128.141 61.0469 127.818 61.3932 127.59 61.8398C127.362 62.2865 127.248 62.8197 127.248 63.4395C127.248 64.0501 127.362 64.5833 127.59 65.0391C127.818 65.4857 128.141 65.8366 128.561 66.0918C128.989 66.347 129.49 66.4746 130.064 66.4746C130.639 66.4746 131.135 66.347 131.555 66.0918C131.974 65.8366 132.298 65.4857 132.525 65.0391C132.753 64.5833 132.867 64.0501 132.867 63.4395ZM152.486 66.3789V69.6328C152.486 71.1914 152.331 72.5221 152.021 73.625C151.721 74.7188 151.283 75.6074 150.709 76.291C150.135 76.9746 149.447 77.4759 148.645 77.7949C147.852 78.1139 146.963 78.2734 145.979 78.2734C145.195 78.2734 144.465 78.1732 143.791 77.9727C143.126 77.7721 142.524 77.4577 141.986 77.0293C141.449 76.6009 140.988 76.0495 140.605 75.375C140.232 74.6914 139.94 73.8757 139.73 72.9277C139.53 71.9798 139.43 70.8815 139.43 69.6328V66.3789C139.43 64.8112 139.585 63.4896 139.895 62.4141C140.204 61.3294 140.646 60.4499 141.221 59.7754C141.795 59.0918 142.479 58.5951 143.271 58.2852C144.074 57.9753 144.967 57.8203 145.951 57.8203C146.744 57.8203 147.473 57.9206 148.139 58.1211C148.813 58.3125 149.415 58.6178 149.943 59.0371C150.481 59.4564 150.937 60.0033 151.311 60.6777C151.693 61.3431 151.985 62.1497 152.186 63.0977C152.386 64.0365 152.486 65.1302 152.486 66.3789ZM149.191 70.0977V65.8867C149.191 65.0938 149.146 64.3965 149.055 63.7949C148.964 63.1842 148.827 62.6693 148.645 62.25C148.471 61.8216 148.253 61.4753 147.988 61.2109C147.724 60.9375 147.423 60.7415 147.086 60.623C146.749 60.4954 146.37 60.4316 145.951 60.4316C145.441 60.4316 144.985 60.5319 144.584 60.7324C144.183 60.9238 143.846 61.2337 143.572 61.6621C143.299 62.0905 143.089 62.6556 142.943 63.3574C142.807 64.0501 142.738 64.8932 142.738 65.8867V70.0977C142.738 70.8997 142.784 71.6061 142.875 72.2168C142.966 72.8275 143.103 73.3516 143.285 73.7891C143.467 74.2174 143.686 74.5729 143.941 74.8555C144.206 75.1289 144.507 75.3294 144.844 75.457C145.19 75.5846 145.568 75.6484 145.979 75.6484C146.498 75.6484 146.958 75.5482 147.359 75.3477C147.76 75.1471 148.098 74.8281 148.371 74.3906C148.645 73.944 148.85 73.3652 148.986 72.6543C149.123 71.9434 149.191 71.0911 149.191 70.0977Z" fill="white"/>
<path opacity="0.54" d="M36.8906 39.7598H38.5996C38.5449 40.4115 38.3626 40.9925 38.0527 41.5029C37.7428 42.0088 37.3076 42.4076 36.7471 42.6992C36.1865 42.9909 35.5052 43.1367 34.7031 43.1367C34.0879 43.1367 33.5342 43.0273 33.042 42.8086C32.5498 42.5853 32.1283 42.2708 31.7773 41.8652C31.4264 41.4551 31.1576 40.9606 30.9707 40.3818C30.7884 39.8031 30.6973 39.1559 30.6973 38.4404V37.6133C30.6973 36.8978 30.7907 36.2507 30.9775 35.6719C31.1689 35.0931 31.4424 34.5986 31.7979 34.1885C32.1533 33.7738 32.5794 33.457 33.0762 33.2383C33.5775 33.0195 34.1403 32.9102 34.7646 32.9102C35.5576 32.9102 36.2275 33.056 36.7744 33.3477C37.3213 33.6393 37.7451 34.0426 38.0459 34.5576C38.3512 35.0726 38.5381 35.6628 38.6064 36.3281H36.8975C36.8519 35.8997 36.7516 35.5329 36.5967 35.2275C36.4463 34.9222 36.223 34.6898 35.9268 34.5303C35.6305 34.3662 35.2432 34.2842 34.7646 34.2842C34.3727 34.2842 34.0309 34.3571 33.7393 34.5029C33.4476 34.6488 33.2038 34.863 33.0078 35.1455C32.8118 35.4281 32.6637 35.7767 32.5635 36.1914C32.4678 36.6016 32.4199 37.071 32.4199 37.5996V38.4404C32.4199 38.9417 32.4632 39.3975 32.5498 39.8076C32.641 40.2132 32.7777 40.5618 32.96 40.8535C33.1468 41.1452 33.3838 41.3708 33.6709 41.5303C33.958 41.6898 34.3021 41.7695 34.7031 41.7695C35.1908 41.7695 35.585 41.6921 35.8857 41.5371C36.1911 41.3822 36.4212 41.1566 36.5762 40.8604C36.7357 40.5596 36.8405 40.1927 36.8906 39.7598ZM44.4443 41.2568V35.6035H46.0986V43H44.54L44.4443 41.2568ZM44.6768 39.7188L45.2305 39.7051C45.2305 40.2018 45.1758 40.6598 45.0664 41.0791C44.957 41.4938 44.7884 41.8561 44.5605 42.166C44.3327 42.4714 44.041 42.7106 43.6855 42.8838C43.3301 43.0524 42.904 43.1367 42.4072 43.1367C42.0472 43.1367 41.7168 43.0843 41.416 42.9795C41.1152 42.8747 40.8555 42.7129 40.6367 42.4941C40.4225 42.2754 40.2562 41.9906 40.1377 41.6396C40.0192 41.2887 39.96 40.8695 39.96 40.3818V35.6035H41.6074V40.3955C41.6074 40.6644 41.6393 40.89 41.7031 41.0723C41.7669 41.25 41.8535 41.3936 41.9629 41.5029C42.0723 41.6123 42.1999 41.6898 42.3457 41.7354C42.4915 41.7809 42.6465 41.8037 42.8105 41.8037C43.2799 41.8037 43.6491 41.7126 43.918 41.5303C44.1914 41.3434 44.3851 41.0928 44.499 40.7783C44.6175 40.4639 44.6768 40.1107 44.6768 39.7188ZM49.4414 37.0117V43H47.7939V35.6035H49.3662L49.4414 37.0117ZM51.7041 35.5557L51.6904 37.0869C51.5902 37.0687 51.4808 37.055 51.3623 37.0459C51.2484 37.0368 51.1344 37.0322 51.0205 37.0322C50.738 37.0322 50.4896 37.0732 50.2754 37.1553C50.0612 37.2327 49.8812 37.3467 49.7354 37.4971C49.5941 37.6429 49.4847 37.8206 49.4072 38.0303C49.3298 38.2399 49.2842 38.4746 49.2705 38.7344L48.8945 38.7617C48.8945 38.2969 48.9401 37.8662 49.0312 37.4697C49.1224 37.0732 49.2591 36.7246 49.4414 36.4238C49.6283 36.123 49.8607 35.8883 50.1387 35.7197C50.4212 35.5511 50.7471 35.4668 51.1162 35.4668C51.2165 35.4668 51.3236 35.4759 51.4375 35.4941C51.556 35.5124 51.6449 35.5329 51.7041 35.5557ZM54.3906 37.0117V43H52.7432V35.6035H54.3154L54.3906 37.0117ZM56.6533 35.5557L56.6396 37.0869C56.5394 37.0687 56.43 37.055 56.3115 37.0459C56.1976 37.0368 56.0837 37.0322 55.9697 37.0322C55.6872 37.0322 55.4388 37.0732 55.2246 37.1553C55.0104 37.2327 54.8304 37.3467 54.6846 37.4971C54.5433 37.6429 54.4339 37.8206 54.3564 38.0303C54.279 38.2399 54.2334 38.4746 54.2197 38.7344L53.8438 38.7617C53.8438 38.2969 53.8893 37.8662 53.9805 37.4697C54.0716 37.0732 54.2083 36.7246 54.3906 36.4238C54.5775 36.123 54.8099 35.8883 55.0879 35.7197C55.3704 35.5511 55.6963 35.4668 56.0654 35.4668C56.1657 35.4668 56.2728 35.4759 56.3867 35.4941C56.5052 35.5124 56.5941 35.5329 56.6533 35.5557ZM60.8096 43.1367C60.2627 43.1367 59.7682 43.0479 59.3262 42.8701C58.8887 42.6878 58.515 42.4349 58.2051 42.1113C57.8997 41.7878 57.665 41.4072 57.501 40.9697C57.3369 40.5322 57.2549 40.0605 57.2549 39.5547V39.2812C57.2549 38.7025 57.3392 38.1784 57.5078 37.709C57.6764 37.2396 57.9111 36.8385 58.2119 36.5059C58.5127 36.1686 58.8682 35.9111 59.2783 35.7334C59.6885 35.5557 60.1328 35.4668 60.6113 35.4668C61.14 35.4668 61.6025 35.5557 61.999 35.7334C62.3955 35.9111 62.7236 36.1618 62.9834 36.4854C63.2477 36.8044 63.4437 37.1849 63.5713 37.627C63.7035 38.069 63.7695 38.5566 63.7695 39.0898V39.7939H58.0547V38.6113H62.1426V38.4814C62.1335 38.1852 62.0742 37.9072 61.9648 37.6475C61.86 37.3877 61.6982 37.1781 61.4795 37.0186C61.2607 36.859 60.9691 36.7793 60.6045 36.7793C60.3311 36.7793 60.0872 36.8385 59.873 36.957C59.6634 37.071 59.488 37.2373 59.3467 37.4561C59.2054 37.6748 59.096 37.9391 59.0186 38.249C58.9456 38.5544 58.9092 38.8984 58.9092 39.2812V39.5547C58.9092 39.8783 58.9525 40.179 59.0391 40.457C59.1302 40.7305 59.2624 40.9697 59.4355 41.1748C59.6087 41.3799 59.8184 41.5417 60.0645 41.6602C60.3105 41.7741 60.5908 41.8311 60.9053 41.8311C61.3018 41.8311 61.6549 41.7513 61.9648 41.5918C62.2747 41.4323 62.5436 41.2067 62.7715 40.915L63.6396 41.7559C63.4801 41.9883 63.2728 42.2116 63.0176 42.4258C62.7624 42.6354 62.4502 42.8063 62.0811 42.9385C61.7165 43.0706 61.2926 43.1367 60.8096 43.1367ZM66.6885 37.1826V43H65.041V35.6035H66.5928L66.6885 37.1826ZM66.3945 39.0283L65.8613 39.0215C65.8659 38.4974 65.9388 38.0166 66.0801 37.5791C66.2259 37.1416 66.4264 36.7656 66.6816 36.4512C66.9414 36.1367 67.2513 35.8952 67.6113 35.7266C67.9714 35.5534 68.3724 35.4668 68.8145 35.4668C69.1699 35.4668 69.4912 35.5169 69.7783 35.6172C70.07 35.7129 70.3184 35.8701 70.5234 36.0889C70.7331 36.3076 70.8926 36.5924 71.002 36.9434C71.1113 37.2897 71.166 37.7158 71.166 38.2217V43H69.5117V38.2148C69.5117 37.8594 69.4593 37.5791 69.3545 37.374C69.2542 37.1644 69.1061 37.0163 68.9102 36.9297C68.7188 36.8385 68.4795 36.793 68.1924 36.793C67.9098 36.793 67.6569 36.8522 67.4336 36.9707C67.2103 37.0892 67.0212 37.251 66.8662 37.4561C66.7158 37.6611 66.5996 37.8981 66.5176 38.167C66.4355 38.4359 66.3945 38.723 66.3945 39.0283ZM76.2383 35.6035V36.8066H72.0684V35.6035H76.2383ZM73.2715 33.792H74.9189V40.9561C74.9189 41.1839 74.9508 41.3594 75.0146 41.4824C75.083 41.6009 75.1764 41.6807 75.2949 41.7217C75.4134 41.7627 75.5524 41.7832 75.7119 41.7832C75.8258 41.7832 75.9352 41.7764 76.04 41.7627C76.1449 41.749 76.2292 41.7354 76.293 41.7217L76.2998 42.9795C76.1631 43.0205 76.0036 43.057 75.8213 43.0889C75.6436 43.1208 75.4385 43.1367 75.2061 43.1367C74.8278 43.1367 74.4928 43.0706 74.2012 42.9385C73.9095 42.8018 73.6816 42.5807 73.5176 42.2754C73.3535 41.9701 73.2715 41.5645 73.2715 41.0586V33.792ZM84.8926 38.502H82.3564L82.3428 37.251H84.5576C84.9313 37.251 85.248 37.1963 85.5078 37.0869C85.7721 36.973 85.9727 36.8112 86.1094 36.6016C86.2461 36.3874 86.3145 36.1299 86.3145 35.8291C86.3145 35.4964 86.2507 35.2253 86.123 35.0156C85.9954 34.806 85.7995 34.6533 85.5352 34.5576C85.2754 34.4619 84.9427 34.4141 84.5371 34.4141H82.876V43H81.1602V33.0469H84.5371C85.084 33.0469 85.5716 33.0993 86 33.2041C86.4329 33.3089 86.7998 33.473 87.1006 33.6963C87.4059 33.915 87.6361 34.193 87.791 34.5303C87.9505 34.8675 88.0303 35.2686 88.0303 35.7334C88.0303 36.1436 87.9323 36.5195 87.7363 36.8613C87.5404 37.1986 87.251 37.4743 86.8682 37.6885C86.4854 37.9027 86.0091 38.0303 85.4395 38.0713L84.8926 38.502ZM84.8174 43H81.8164L82.5889 41.6396H84.8174C85.2048 41.6396 85.5283 41.5758 85.7881 41.4482C86.0479 41.3161 86.2415 41.1361 86.3691 40.9082C86.5013 40.6758 86.5674 40.4046 86.5674 40.0947C86.5674 39.7712 86.5104 39.4909 86.3965 39.2539C86.2826 39.0124 86.1025 38.8278 85.8564 38.7002C85.6104 38.568 85.2891 38.502 84.8926 38.502H82.9648L82.9785 37.251H85.4873L85.877 37.7227C86.4238 37.7409 86.8727 37.8617 87.2236 38.085C87.5791 38.3083 87.8434 38.5977 88.0166 38.9531C88.1898 39.3086 88.2764 39.6914 88.2764 40.1016C88.2764 40.735 88.1374 41.266 87.8594 41.6943C87.5859 42.1227 87.1917 42.4486 86.6768 42.6719C86.1618 42.8906 85.542 43 84.8174 43ZM94.0117 41.5166V37.9893C94.0117 37.7249 93.9639 37.4971 93.8682 37.3057C93.7725 37.1143 93.6266 36.9661 93.4307 36.8613C93.2393 36.7565 92.9977 36.7041 92.7061 36.7041C92.4372 36.7041 92.2048 36.7497 92.0088 36.8408C91.8128 36.932 91.6602 37.055 91.5508 37.21C91.4414 37.3649 91.3867 37.5404 91.3867 37.7363H89.7461C89.7461 37.4447 89.8167 37.1621 89.958 36.8887C90.0993 36.6152 90.3044 36.3714 90.5732 36.1572C90.8421 35.943 91.1634 35.7744 91.5371 35.6514C91.9108 35.5283 92.3301 35.4668 92.7949 35.4668C93.3509 35.4668 93.8431 35.5602 94.2715 35.7471C94.7044 35.9339 95.0439 36.2165 95.29 36.5947C95.5407 36.9684 95.666 37.4378 95.666 38.0029V41.291C95.666 41.6283 95.6888 41.9313 95.7344 42.2002C95.7845 42.4645 95.8551 42.6947 95.9463 42.8906V43H94.2578C94.1803 42.8223 94.1188 42.5967 94.0732 42.3232C94.0322 42.0452 94.0117 41.7764 94.0117 41.5166ZM94.251 38.502L94.2646 39.5205H93.082C92.7767 39.5205 92.5078 39.5501 92.2754 39.6094C92.043 39.6641 91.8493 39.7461 91.6943 39.8555C91.5394 39.9648 91.4232 40.097 91.3457 40.252C91.2682 40.4069 91.2295 40.5824 91.2295 40.7783C91.2295 40.9743 91.2751 41.1543 91.3662 41.3184C91.4574 41.4779 91.5895 41.6032 91.7627 41.6943C91.9404 41.7855 92.1546 41.8311 92.4053 41.8311C92.7425 41.8311 93.0365 41.7627 93.2871 41.626C93.5423 41.4847 93.7428 41.3138 93.8887 41.1133C94.0345 40.9082 94.112 40.7145 94.1211 40.5322L94.6543 41.2637C94.5996 41.4505 94.5062 41.651 94.374 41.8652C94.2419 42.0794 94.0687 42.2845 93.8545 42.4805C93.6449 42.6719 93.3919 42.8291 93.0957 42.9521C92.804 43.0752 92.4668 43.1367 92.084 43.1367C91.6009 43.1367 91.1702 43.041 90.792 42.8496C90.4137 42.6536 90.1175 42.3916 89.9033 42.0635C89.6891 41.7308 89.582 41.3548 89.582 40.9355C89.582 40.5436 89.6549 40.1973 89.8008 39.8965C89.9512 39.5911 90.1699 39.3359 90.457 39.1309C90.7487 38.9258 91.1042 38.7708 91.5234 38.666C91.9427 38.5566 92.4212 38.502 92.959 38.502H94.251ZM99.1523 32.5V43H97.498V32.5H99.1523ZM105.127 41.5166V37.9893C105.127 37.7249 105.079 37.4971 104.983 37.3057C104.888 37.1143 104.742 36.9661 104.546 36.8613C104.354 36.7565 104.113 36.7041 103.821 36.7041C103.552 36.7041 103.32 36.7497 103.124 36.8408C102.928 36.932 102.775 37.055 102.666 37.21C102.557 37.3649 102.502 37.5404 102.502 37.7363H100.861C100.861 37.4447 100.932 37.1621 101.073 36.8887C101.215 36.6152 101.42 36.3714 101.688 36.1572C101.957 35.943 102.279 35.7744 102.652 35.6514C103.026 35.5283 103.445 35.4668 103.91 35.4668C104.466 35.4668 104.958 35.5602 105.387 35.7471C105.82 35.9339 106.159 36.2165 106.405 36.5947C106.656 36.9684 106.781 37.4378 106.781 38.0029V41.291C106.781 41.6283 106.804 41.9313 106.85 42.2002C106.9 42.4645 106.97 42.6947 107.062 42.8906V43H105.373C105.296 42.8223 105.234 42.5967 105.188 42.3232C105.147 42.0452 105.127 41.7764 105.127 41.5166ZM105.366 38.502L105.38 39.5205H104.197C103.892 39.5205 103.623 39.5501 103.391 39.6094C103.158 39.6641 102.965 39.7461 102.81 39.8555C102.655 39.9648 102.538 40.097 102.461 40.252C102.383 40.4069 102.345 40.5824 102.345 40.7783C102.345 40.9743 102.39 41.1543 102.481 41.3184C102.573 41.4779 102.705 41.6032 102.878 41.6943C103.056 41.7855 103.27 41.8311 103.521 41.8311C103.858 41.8311 104.152 41.7627 104.402 41.626C104.658 41.4847 104.858 41.3138 105.004 41.1133C105.15 40.9082 105.227 40.7145 105.236 40.5322L105.77 41.2637C105.715 41.4505 105.621 41.651 105.489 41.8652C105.357 42.0794 105.184 42.2845 104.97 42.4805C104.76 42.6719 104.507 42.8291 104.211 42.9521C103.919 43.0752 103.582 43.1367 103.199 43.1367C102.716 43.1367 102.285 43.041 101.907 42.8496C101.529 42.6536 101.233 42.3916 101.019 42.0635C100.804 41.7308 100.697 41.3548 100.697 40.9355C100.697 40.5436 100.77 40.1973 100.916 39.8965C101.066 39.5911 101.285 39.3359 101.572 39.1309C101.864 38.9258 102.219 38.7708 102.639 38.666C103.058 38.5566 103.536 38.502 104.074 38.502H105.366ZM110.138 37.1826V43H108.49V35.6035H110.042L110.138 37.1826ZM109.844 39.0283L109.311 39.0215C109.315 38.4974 109.388 38.0166 109.529 37.5791C109.675 37.1416 109.876 36.7656 110.131 36.4512C110.391 36.1367 110.701 35.8952 111.061 35.7266C111.421 35.5534 111.822 35.4668 112.264 35.4668C112.619 35.4668 112.94 35.5169 113.228 35.6172C113.519 35.7129 113.768 35.8701 113.973 36.0889C114.182 36.3076 114.342 36.5924 114.451 36.9434C114.561 37.2897 114.615 37.7158 114.615 38.2217V43H112.961V38.2148C112.961 37.8594 112.909 37.5791 112.804 37.374C112.703 37.1644 112.555 37.0163 112.359 36.9297C112.168 36.8385 111.929 36.793 111.642 36.793C111.359 36.793 111.106 36.8522 110.883 36.9707C110.66 37.0892 110.47 37.251 110.315 37.4561C110.165 37.6611 110.049 37.8981 109.967 38.167C109.885 38.4359 109.844 38.723 109.844 39.0283ZM119.318 41.8242C119.587 41.8242 119.829 41.7718 120.043 41.667C120.262 41.5576 120.437 41.4072 120.569 41.2158C120.706 41.0244 120.781 40.8034 120.795 40.5527H122.347C122.338 41.0312 122.196 41.4665 121.923 41.8584C121.649 42.2503 121.287 42.5625 120.836 42.7949C120.385 43.0228 119.886 43.1367 119.339 43.1367C118.774 43.1367 118.282 43.041 117.862 42.8496C117.443 42.6536 117.094 42.3848 116.816 42.043C116.538 41.7012 116.329 41.307 116.188 40.8604C116.051 40.4137 115.982 39.9352 115.982 39.4248V39.1855C115.982 38.6751 116.051 38.1966 116.188 37.75C116.329 37.2988 116.538 36.9023 116.816 36.5605C117.094 36.2188 117.443 35.9521 117.862 35.7607C118.282 35.5648 118.771 35.4668 119.332 35.4668C119.924 35.4668 120.444 35.5853 120.891 35.8223C121.337 36.0547 121.688 36.3805 121.943 36.7998C122.203 37.2145 122.338 37.6976 122.347 38.249H120.795C120.781 37.9756 120.713 37.7295 120.59 37.5107C120.471 37.2874 120.303 37.1097 120.084 36.9775C119.87 36.8454 119.612 36.7793 119.312 36.7793C118.979 36.7793 118.703 36.8477 118.484 36.9844C118.266 37.1165 118.095 37.2988 117.972 37.5312C117.849 37.7591 117.76 38.0166 117.705 38.3037C117.655 38.5863 117.63 38.8802 117.63 39.1855V39.4248C117.63 39.7301 117.655 40.0264 117.705 40.3135C117.755 40.6006 117.842 40.8581 117.965 41.0859C118.092 41.3092 118.266 41.4893 118.484 41.626C118.703 41.7581 118.981 41.8242 119.318 41.8242ZM126.872 43.1367C126.325 43.1367 125.831 43.0479 125.389 42.8701C124.951 42.6878 124.577 42.4349 124.268 42.1113C123.962 41.7878 123.728 41.4072 123.563 40.9697C123.399 40.5322 123.317 40.0605 123.317 39.5547V39.2812C123.317 38.7025 123.402 38.1784 123.57 37.709C123.739 37.2396 123.974 36.8385 124.274 36.5059C124.575 36.1686 124.931 35.9111 125.341 35.7334C125.751 35.5557 126.195 35.4668 126.674 35.4668C127.202 35.4668 127.665 35.5557 128.062 35.7334C128.458 35.9111 128.786 36.1618 129.046 36.4854C129.31 36.8044 129.506 37.1849 129.634 37.627C129.766 38.069 129.832 38.5566 129.832 39.0898V39.7939H124.117V38.6113H128.205V38.4814C128.196 38.1852 128.137 37.9072 128.027 37.6475C127.923 37.3877 127.761 37.1781 127.542 37.0186C127.323 36.859 127.032 36.7793 126.667 36.7793C126.394 36.7793 126.15 36.8385 125.936 36.957C125.726 37.071 125.55 37.2373 125.409 37.4561C125.268 37.6748 125.159 37.9391 125.081 38.249C125.008 38.5544 124.972 38.8984 124.972 39.2812V39.5547C124.972 39.8783 125.015 40.179 125.102 40.457C125.193 40.7305 125.325 40.9697 125.498 41.1748C125.671 41.3799 125.881 41.5417 126.127 41.6602C126.373 41.7741 126.653 41.8311 126.968 41.8311C127.364 41.8311 127.717 41.7513 128.027 41.5918C128.337 41.4323 128.606 41.2067 128.834 40.915L129.702 41.7559C129.543 41.9883 129.335 42.2116 129.08 42.4258C128.825 42.6354 128.513 42.8063 128.144 42.9385C127.779 43.0706 127.355 43.1367 126.872 43.1367Z" fill="white"/>
<defs>
<linearGradient id="paint0_linear_12_1" x1="55.3965" y1="-29.0526" x2="88.5115" y2="228.882" gradientUnits="userSpaceOnUse">
<stop stop-color="#E42C66"/>
<stop offset="1" stop-color="#F55B46"/>
</linearGradient>
</defs>
</svg>
