<svg width="230" height="266" viewBox="0 0 230 266" fill="none" xmlns="http://www.w3.org/2000/svg">
<path d="M114.91 0L0.0029498 64.8811V138.623L0 138.62V138.632L0.0029498 138.629V200.517L114.91 265.374L229.935 200.517V64.8811L114.91 0ZM120.857 23.6625L206.423 71.9253L160.103 99.2412L120.857 77.106V23.6625V23.6625ZM114.96 125.864L140.713 110.676C143.514 109.022 147.135 109.956 148.787 112.761C150.444 115.568 149.509 119.183 146.702 120.837L120.854 136.081V165.883C120.854 169.138 118.215 171.78 114.957 171.78C111.702 171.78 109.06 169.138 109.06 165.883V136.078L83.2096 120.834C80.4055 119.18 79.4708 115.565 81.1249 112.758C82.7791 109.951 86.3882 109.019 89.2012 110.673L114.96 125.864ZM109.063 23.6183V77.0529L69.7905 99.2264L23.5033 71.9282L109.063 23.6183ZM17.6975 82.1953L57.9312 105.923L17.6975 128.639V82.1953ZM212.246 190.182L114.96 244.755L17.6975 190.185V179.591L114.91 232.96L212.246 177.742V190.182ZM212.246 161.218L114.913 215.269L17.6975 161.236V148.607L114.907 203.474L212.246 148.592V161.218ZM212.246 128.651L171.968 105.932L212.246 82.1805V128.651Z" fill="white"/>
</svg>
